<svg width="71" height="71" viewBox="0 0 71 71" fill="none" xmlns="http://www.w3.org/2000/svg">
<path d="M61.2812 8.875H59.0938V6.65625C59.0937 4.8909 58.4023 3.19786 57.1716 1.94957C55.9409 0.701281 54.2717 0 52.5312 0C50.7908 0 49.1216 0.701281 47.8909 1.94957C46.6602 3.19786 45.9688 4.8909 45.9688 6.65625V8.875H41.5938V6.65625C41.5937 4.8909 40.9023 3.19786 39.6716 1.94957C38.4409 0.701281 36.7717 0 35.0312 0C33.2908 0 31.6216 0.701281 30.3909 1.94957C29.1602 3.19786 28.4688 4.8909 28.4688 6.65625V8.875H24.0938V6.65625C24.0938 4.8909 23.4023 3.19786 22.1716 1.94957C20.9409 0.701281 19.2717 0 17.5312 0C15.7908 0 14.1216 0.701281 12.8909 1.94957C11.6602 3.19786 10.9688 4.8909 10.9688 6.65625V8.875H8.78125C7.04077 8.875 5.37157 9.57628 4.14086 10.8246C2.91015 12.0729 2.21875 13.7659 2.21875 15.5312V64.3438C2.21875 66.1091 2.91015 67.8021 4.14086 69.0504C5.37157 70.2987 7.04077 71 8.78125 71H61.2812C63.0217 71 64.6909 70.2987 65.9216 69.0504C67.1523 67.8021 67.8438 66.1091 67.8438 64.3438V15.5312C67.8437 13.7659 67.1523 12.0729 65.9216 10.8246C64.6909 9.57628 63.0217 8.875 61.2812 8.875ZM50.3438 6.65625C50.3438 6.0678 50.5742 5.50345 50.9845 5.08736C51.3947 4.67126 51.9511 4.4375 52.5312 4.4375C53.1114 4.4375 53.6678 4.67126 54.078 5.08736C54.4883 5.50345 54.7188 6.0678 54.7188 6.65625V8.875H50.3438V6.65625ZM32.8438 6.65625C32.8438 6.0678 33.0742 5.50345 33.4845 5.08736C33.8947 4.67126 34.4511 4.4375 35.0312 4.4375C35.6114 4.4375 36.1678 4.67126 36.578 5.08736C36.9883 5.50345 37.2188 6.0678 37.2188 6.65625V8.875H32.8438V6.65625ZM15.3438 6.65625C15.3438 6.0678 15.5742 5.50345 15.9845 5.08736C16.3947 4.67126 16.9511 4.4375 17.5312 4.4375C18.1114 4.4375 18.6678 4.67126 19.078 5.08736C19.4883 5.50345 19.7188 6.0678 19.7188 6.65625V8.875H15.3438V6.65625ZM6.59375 15.5312C6.59375 14.9428 6.82422 14.3785 7.23445 13.9624C7.64469 13.5463 8.20109 13.3125 8.78125 13.3125H10.9688V15.5312C10.9688 16.1197 11.1992 16.684 11.6095 17.1001C12.0197 17.5162 12.5761 17.75 13.1562 17.75C13.7364 17.75 14.2928 17.5162 14.703 17.1001C15.1133 16.684 15.3438 16.1197 15.3438 15.5312V13.3125H28.4688V15.5312C28.4688 16.1197 28.6992 16.684 29.1095 17.1001C29.5197 17.5162 30.0761 17.75 30.6562 17.75C31.2364 17.75 31.7928 17.5162 32.203 17.1001C32.6133 16.684 32.8438 16.1197 32.8438 15.5312V13.3125H45.9688V15.5312C45.9688 16.1197 46.1992 16.684 46.6095 17.1001C47.0197 17.5162 47.5761 17.75 48.1562 17.75C48.7364 17.75 49.2928 17.5162 49.703 17.1001C50.1133 16.684 50.3438 16.1197 50.3438 15.5312V13.3125H61.2812C61.8614 13.3125 62.4178 13.5463 62.828 13.9624C63.2383 14.3785 63.4688 14.9428 63.4688 15.5312V22.1875H6.59375V15.5312ZM63.4688 64.3438C63.4688 64.9322 63.2383 65.4965 62.828 65.9126C62.4178 66.3287 61.8614 66.5625 61.2812 66.5625H8.78125C8.20109 66.5625 7.64469 66.3287 7.23445 65.9126C6.82422 65.4965 6.59375 64.9322 6.59375 64.3438V26.625H63.4688V64.3438Z" fill="#4D4D4D"/>
<path d="M39.4062 62.125H30.6562C30.0761 62.125 29.5197 61.8912 29.1095 61.4751C28.6992 61.059 28.4688 60.4947 28.4688 59.9062V53.25H21.9062C21.3261 53.25 20.7697 53.0162 20.3595 52.6001C19.9492 52.184 19.7188 51.6197 19.7188 51.0312V42.1562C19.7188 41.5678 19.9492 41.0035 20.3595 40.5874C20.7697 40.1713 21.3261 39.9375 21.9062 39.9375H28.4688V33.2812C28.4688 32.6928 28.6992 32.1285 29.1095 31.7124C29.5197 31.2963 30.0761 31.0625 30.6562 31.0625H39.4062C39.9864 31.0625 40.5428 31.2963 40.953 31.7124C41.3633 32.1285 41.5938 32.6928 41.5938 33.2812V39.9375H48.1562C48.7364 39.9375 49.2928 40.1713 49.703 40.5874C50.1133 41.0035 50.3438 41.5678 50.3438 42.1562V51.0312C50.3438 51.6197 50.1133 52.184 49.703 52.6001C49.2928 53.0162 48.7364 53.25 48.1562 53.25H41.5938V59.9062C41.5938 60.4947 41.3633 61.059 40.953 61.4751C40.5428 61.8912 39.9864 62.125 39.4062 62.125ZM32.8438 57.6875H37.2188V51.0312C37.2188 50.4428 37.4492 49.8785 37.8595 49.4624C38.2697 49.0463 38.8261 48.8125 39.4062 48.8125H45.9688V44.375H39.4062C38.8261 44.375 38.2697 44.1412 37.8595 43.7251C37.4492 43.309 37.2188 42.7447 37.2188 42.1562V35.5H32.8438V42.1562C32.8438 42.7447 32.6133 43.309 32.203 43.7251C31.7928 44.1412 31.2364 44.375 30.6562 44.375H24.0938V48.8125H30.6562C31.2364 48.8125 31.7928 49.0463 32.203 49.4624C32.6133 49.8785 32.8438 50.4428 32.8438 51.0312V57.6875Z" fill="#596A73"/>
</svg>
