<svg width="49" height="49" viewBox="0 0 49 49" fill="none" xmlns="http://www.w3.org/2000/svg">
<path d="M26.1894 33.793H22.8101V35.4826H26.1894V33.793Z" fill="#596A73"/>
<path d="M45.6207 0H3.37931C2.48337 0.00100624 1.62441 0.357363 0.990888 0.990888C0.357363 1.62441 0.00100624 2.48337 0 3.37931V35.4828C0.00100624 36.3787 0.357363 37.2377 0.990888 37.8712C1.62441 38.5047 2.48337 38.8611 3.37931 38.8621H18.5862V47.3103H16.0517V49H32.9483V47.3103H30.4138V38.8621H45.6207C46.5166 38.8611 47.3756 38.5047 48.0091 37.8712C48.6426 37.2377 48.999 36.3787 49 35.4828V3.37931C48.999 2.48337 48.6426 1.62441 48.0091 0.990888C47.3756 0.357363 46.5166 0.00100624 45.6207 0ZM1.68966 3.37931C1.69019 2.93135 1.86837 2.50189 2.18513 2.18513C2.50189 1.86837 2.93135 1.69019 3.37931 1.68966H45.6207C46.0687 1.69019 46.4981 1.86837 46.8149 2.18513C47.1316 2.50189 47.3098 2.93135 47.3103 3.37931V30.4138H1.68966V3.37931ZM28.7241 47.3103H20.2759V38.8621H28.7241V47.3103ZM45.6207 37.1724H3.37931C2.93135 37.1719 2.50189 36.9937 2.18513 36.6769C1.86837 36.3602 1.69019 35.9307 1.68966 35.4828V32.1034H47.3103V35.4828C47.3098 35.9307 47.1316 36.3602 46.8149 36.6769C46.4981 36.9937 46.0687 37.1719 45.6207 37.1724Z" fill="#596A73"/>
<path d="M27.8788 5.06909C26.9718 5.06885 26.0769 5.27729 25.2634 5.67829C24.4499 6.07929 23.7395 6.66209 23.1872 7.3816C22.635 8.1011 22.2557 8.93802 22.0787 9.82758C21.9017 10.7171 21.9318 11.6355 22.1665 12.5116L19.5202 13.6458C19.1693 13.1385 18.7114 12.7144 18.1787 12.4034C17.6461 12.0923 17.0517 11.9019 16.4374 11.8455C15.8232 11.7891 15.2041 11.8681 14.6237 12.077C14.0433 12.2859 13.5158 12.6195 13.0784 13.0544L8.37019 9.91629C8.51829 9.33586 8.45637 8.72176 8.19539 8.18258C7.93441 7.6434 7.49117 7.21387 6.94406 6.96994C6.39695 6.72602 5.78121 6.68342 5.20572 6.84966C4.63023 7.01591 4.13206 7.38031 3.79931 7.87841C3.46655 8.37651 3.32065 8.97623 3.3874 9.57152C3.45414 10.1668 3.72924 10.7193 4.16404 11.1314C4.59885 11.5434 5.16534 11.7884 5.76336 11.8231C6.36138 11.8578 6.9524 11.6798 7.4319 11.3208L12.1396 14.4596C11.9099 15.0221 11.8047 15.6276 11.8311 16.2347C11.8576 16.8417 12.0151 17.4358 12.2929 17.9762L10.3054 19.5665C9.50038 18.8961 8.47511 18.5485 7.42836 18.591C6.3816 18.6336 5.38794 19.0633 4.64004 19.7969C3.89214 20.5305 3.44329 21.5157 3.3805 22.5614C3.31772 23.6071 3.64549 24.6389 4.30025 25.4567C4.95501 26.2745 5.89012 26.8201 6.92426 26.9876C7.9584 27.1551 9.0179 26.9326 9.89732 26.3633C10.7767 25.7939 11.4134 24.9184 11.684 23.9063C11.9545 22.8942 11.8395 21.8177 11.3614 20.8855L13.349 19.2951C14.0957 19.9193 15.0355 20.2657 16.0086 20.2755C16.9818 20.2852 17.9284 19.9577 18.6874 19.3487L23.8131 23.6197C23.6429 24.0787 23.6092 24.5771 23.7162 25.0548C23.8231 25.5325 24.0661 25.969 24.4158 26.3116C24.7655 26.6542 25.207 26.8881 25.6868 26.9852C26.1666 27.0823 26.6642 27.0383 27.1196 26.8587C27.575 26.679 27.9685 26.3713 28.2528 25.9728C28.5371 25.5743 28.6998 25.1019 28.7214 24.6129C28.743 24.1238 28.6225 23.639 28.3745 23.2169C28.1265 22.7949 27.7615 22.4537 27.3238 22.2346L27.992 16.8938C29.5495 16.863 31.0318 16.2188 32.117 15.1012C33.2022 13.9837 33.8025 12.4831 33.7876 10.9254C33.7727 9.36778 33.1437 7.87893 32.0373 6.78237C30.931 5.68581 29.4366 5.07013 27.8788 5.06909ZM22.8333 14.0642C23.6196 15.3477 24.8641 16.2846 26.315 16.6855L25.6468 22.0249C25.3818 22.0829 25.128 22.1833 24.895 22.3223L19.7706 18.0523C20.2407 17.1793 20.3886 16.1688 20.1885 15.1977L22.8333 14.0642ZM5.91333 10.1381C5.74623 10.1381 5.5829 10.0885 5.44396 9.99568C5.30503 9.90285 5.19675 9.7709 5.13281 9.61653C5.06886 9.46216 5.05213 9.29229 5.08473 9.12841C5.11733 8.96453 5.19779 8.814 5.31594 8.69585C5.43409 8.5777 5.58463 8.49723 5.74851 8.46464C5.91239 8.43204 6.08226 8.44877 6.23663 8.51271C6.391 8.57665 6.52294 8.68494 6.61577 8.82387C6.70861 8.9628 6.75815 9.12614 6.75815 9.29323C6.7579 9.51722 6.66881 9.73195 6.51043 9.89034C6.35205 10.0487 6.13731 10.1378 5.91333 10.1381ZM7.60298 25.345C7.10171 25.345 6.61169 25.1963 6.1949 24.9178C5.7781 24.6393 5.45325 24.2435 5.26142 23.7804C5.0696 23.3173 5.0194 22.8077 5.1172 22.316C5.21499 21.8244 5.45638 21.3728 5.81083 21.0183C6.16528 20.6639 6.61689 20.4225 7.10853 20.3247C7.60017 20.2269 8.10977 20.2771 8.57289 20.4689C9.036 20.6607 9.43183 20.9856 9.71033 21.4024C9.98882 21.8192 10.1375 22.3092 10.1375 22.8105C10.1367 23.4824 9.8694 24.1266 9.39427 24.6018C8.91913 25.0769 8.27493 25.3442 7.60298 25.345ZM16.0513 18.5863C15.55 18.5863 15.06 18.4377 14.6432 18.1592C14.2264 17.8807 13.9015 17.4849 13.7097 17.0218C13.5179 16.5586 13.4677 16.049 13.5655 15.5574C13.6633 15.0658 13.9047 14.6142 14.2591 14.2597C14.6136 13.9052 15.0652 13.6639 15.5568 13.5661C16.0484 13.4683 16.558 13.5185 17.0212 13.7103C17.4843 13.9021 17.8801 14.227 18.1586 14.6438C18.4371 15.0606 18.5857 15.5506 18.5857 16.0519C18.585 16.7238 18.3177 17.368 17.8425 17.8431C17.3674 18.3183 16.7232 18.5856 16.0513 18.5863ZM26.1892 25.345C26.0221 25.345 25.8588 25.2954 25.7198 25.2026C25.5809 25.1097 25.4726 24.9778 25.4087 24.8234C25.3447 24.6691 25.328 24.4992 25.3606 24.3353C25.3932 24.1714 25.4737 24.0209 25.5918 23.9027C25.71 23.7846 25.8605 23.7041 26.0244 23.6715C26.1882 23.6389 26.3581 23.6557 26.5125 23.7196C26.6669 23.7836 26.7988 23.8918 26.8916 24.0308C26.9845 24.1697 27.034 24.333 27.034 24.5001C27.0338 24.7241 26.9447 24.9389 26.7863 25.0972C26.6279 25.2556 26.4132 25.3447 26.1892 25.345ZM27.8788 15.207C27.0434 15.207 26.2267 14.9593 25.532 14.4951C24.8374 14.031 24.296 13.3713 23.9762 12.5994C23.6565 11.8275 23.5729 10.9782 23.7359 10.1588C23.8989 9.3394 24.3012 8.58672 24.8919 7.99597C25.4827 7.40521 26.2354 7.0029 27.0548 6.83991C27.8742 6.67692 28.7235 6.76058 29.4954 7.08029C30.2672 7.40001 30.9269 7.94142 31.3911 8.63608C31.8552 9.33074 32.103 10.1474 32.103 10.9829C32.1017 12.1028 31.6563 13.1765 30.8644 13.9684C30.0725 14.7603 28.9988 15.2058 27.8788 15.207Z" fill="#596A73"/>
<path d="M44.7759 5.06909H36.3276V6.75875H44.7759V5.06909Z" fill="#596A73"/>
<path d="M39.7069 8.44849H36.3276V10.1381H39.7069V8.44849Z" fill="#596A73"/>
<path d="M43.0863 11.8276H36.3276V13.5173H43.0863V11.8276Z" fill="#596A73"/>
<path d="M44.7759 15.207H36.3276V16.8967H44.7759V15.207Z" fill="#596A73"/>
<path d="M41.3966 18.5862H36.3276V20.2758H41.3966V18.5862Z" fill="#596A73"/>
<path d="M43.0863 21.9656H36.3276V23.6552H43.0863V21.9656Z" fill="#596A73"/>
<path d="M44.7759 25.345H36.3276V27.0346H44.7759V25.345Z" fill="#596A73"/>
</svg>
