<svg width="92" height="92" viewBox="0 0 92 92" fill="none" xmlns="http://www.w3.org/2000/svg">
<rect width="92" height="92" rx="46" fill="#C7CBC4" fill-opacity="0.5"/>
<path d="M61.3245 16H30.3079C29.1654 16 28.0696 16.4539 27.2617 17.2617C26.4539 18.0696 26 19.1654 26 20.3079V71.6921C26 72.8346 26.4539 73.9304 27.2617 74.7383C28.0696 75.5461 29.1654 76 30.3079 76H61.3245C62.467 76 63.5628 75.5461 64.3707 74.7383C65.1785 73.9304 65.6324 72.8346 65.6324 71.6921V20.3079C65.6324 19.1654 65.1785 18.0696 64.3707 17.2617C63.5628 16.4539 62.467 16 61.3245 16ZM64.7708 71.6921C64.7708 72.6061 64.4077 73.4827 63.7614 74.129C63.1151 74.7753 62.2385 75.1384 61.3245 75.1384H30.3079C29.3939 75.1384 28.5173 74.7753 27.871 74.129C27.2247 73.4827 26.8616 72.6061 26.8616 71.6921V64.3688H64.7708V71.6921ZM64.7708 63.5072H26.8616V28.1827H64.7708V63.5072ZM64.7708 27.3211H26.8616V20.3079C26.8616 19.3939 27.2247 18.5173 27.871 17.871C28.5173 17.2247 29.3939 16.8616 30.3079 16.8616H61.3245C62.2385 16.8616 63.1151 17.2247 63.7614 17.871C64.4077 18.5173 64.7708 19.3939 64.7708 20.3079V27.3211Z" fill="#231F20"/>
<path d="M45.8161 55.0467C47.6053 55.0467 49.3543 54.5161 50.842 53.5221C52.3297 52.528 53.4892 51.1151 54.174 49.4621C54.8587 47.8091 55.0378 45.9901 54.6888 44.2353C54.3397 42.4804 53.4781 40.8685 52.2129 39.6033C50.9477 38.3381 49.3358 37.4765 47.5809 37.1274C45.8261 36.7784 44.0071 36.9575 42.3541 37.6422C40.7011 38.327 39.2882 39.4865 38.2941 40.9742C37.3001 42.4619 36.7695 44.2109 36.7695 46.0001C36.7718 48.3987 37.7257 50.6984 39.4217 52.3945C41.1178 54.0905 43.4175 55.0444 45.8161 55.0467ZM45.8161 37.8152C47.4349 37.8152 49.0174 38.2952 50.3634 39.1946C51.7094 40.094 52.7585 41.3723 53.378 42.8679C53.9975 44.3635 54.1596 46.0092 53.8437 47.5969C53.5279 49.1847 52.7484 50.6431 51.6037 51.7878C50.459 52.9325 49.0006 53.712 47.4129 54.0278C45.8251 54.3436 44.1794 54.1816 42.6838 53.5621C41.1882 52.9426 39.9099 51.8935 39.0105 50.5475C38.1111 49.2014 37.6311 47.619 37.6311 46.0001C37.6334 43.8301 38.4965 41.7495 40.0309 40.215C41.5654 38.6805 43.646 37.8175 45.8161 37.8152Z" fill="#231F20"/>
<path d="M45.8163 72.9846C46.4127 72.9846 46.9957 72.8078 47.4916 72.4764C47.9875 72.1451 48.374 71.6741 48.6023 71.1231C48.8305 70.5721 48.8902 69.9658 48.7739 69.3808C48.6575 68.7959 48.3703 68.2586 47.9486 67.8368C47.5268 67.4151 46.9895 67.1279 46.4046 67.0116C45.8196 66.8952 45.2133 66.9549 44.6623 67.1832C44.1113 67.4114 43.6403 67.7979 43.309 68.2938C42.9776 68.7897 42.8008 69.3727 42.8008 69.9691C42.8008 70.7689 43.1185 71.5359 43.684 72.1014C44.2495 72.6669 45.0165 72.9846 45.8163 72.9846ZM45.8163 67.8152C46.2423 67.8152 46.6587 67.9415 47.013 68.1782C47.3672 68.4149 47.6432 68.7513 47.8063 69.1448C47.9693 69.5384 48.0119 69.9715 47.9288 70.3893C47.8457 70.8072 47.6406 71.191 47.3394 71.4922C47.0381 71.7934 46.6543 71.9986 46.2365 72.0817C45.8187 72.1648 45.3856 72.1221 44.992 71.9591C44.5984 71.7961 44.262 71.52 44.0254 71.1658C43.7887 70.8116 43.6624 70.3951 43.6624 69.9691C43.6624 69.3979 43.8893 68.85 44.2932 68.4461C44.6972 68.0421 45.245 67.8152 45.8163 67.8152Z" fill="#231F20"/>
<path d="M44.0928 51.1695H47.5391V47.7232H50.9854V44.2769H47.5391V40.8306H44.0928V44.2769H40.6465V47.7232H44.0928V51.1695ZM41.5081 46.8616V45.1384H44.9544V41.6921H46.6775V45.1384H50.1238V46.8616H46.6775V50.3079H44.9544V46.8616H41.5081Z" fill="#231F20"/>
<path d="M51.2099 19.9978H40.423C39.8517 19.9978 39.3039 20.2247 38.8999 20.6287C38.496 21.0326 38.269 21.5805 38.269 22.1517C38.269 22.723 38.496 23.2709 38.8999 23.6748C39.3039 24.0787 39.8517 24.3057 40.423 24.3057H51.2099C51.7811 24.3057 52.329 24.0787 52.7329 23.6748C53.1369 23.2709 53.3638 22.723 53.3638 22.1517C53.3638 21.5805 53.1369 21.0326 52.7329 20.6287C52.329 20.2247 51.7811 19.9978 51.2099 19.9978ZM51.2099 23.4441H40.423C40.0802 23.4441 39.7515 23.3079 39.5091 23.0656C39.2668 22.8232 39.1306 22.4945 39.1306 22.1517C39.1306 21.809 39.2668 21.4803 39.5091 21.2379C39.7515 20.9955 40.0802 20.8594 40.423 20.8594H51.2099C51.5526 20.8594 51.8814 20.9955 52.1237 21.2379C52.3661 21.4803 52.5022 21.809 52.5022 22.1517C52.5022 22.4945 52.3661 22.8232 52.1237 23.0656C51.8814 23.3079 51.5526 23.4441 51.2099 23.4441Z" fill="#231F20"/>
</svg>
