<svg width="66" height="72" viewBox="0 0 66 72" fill="none" xmlns="http://www.w3.org/2000/svg">
<path d="M32.1025 13.3125C35.7269 13.3125 38.665 10.3324 38.665 6.65625C38.665 2.9801 35.7269 0 32.1025 0C28.4782 0 25.54 2.9801 25.54 6.65625C25.54 10.3324 28.4782 13.3125 32.1025 13.3125Z" fill="#4D4D4D"/>
<path d="M51.3853 25.6266L45.7962 23.4078L41.1806 16.9734C41.0843 16.8161 40.9745 16.6676 40.8525 16.5297C40.2737 15.9288 39.4922 15.5721 38.665 15.5312H25.54C25.0418 15.5584 24.5563 15.7004 24.1204 15.9465C23.6845 16.1925 23.3097 16.5362 23.0243 16.9512L18.4087 23.3856L12.8197 25.6044C12.2685 25.7897 11.8125 26.1896 11.552 26.7159C11.2915 27.2423 11.2478 27.8521 11.4306 28.4111C11.6133 28.9701 12.0076 29.4326 12.5265 29.6968C13.0455 29.9611 13.6466 30.0054 14.1978 29.82L20.8806 27.9673C21.2241 27.8738 21.5372 27.6902 21.7884 27.4348L22.0509 27.1686L25.1572 24.0734L24.4462 39.9375V41.0469V59.7731C24.4114 60.3616 24.6085 60.9399 24.9941 61.381C25.3797 61.8221 25.9223 62.0897 26.5025 62.125C27.0826 62.1603 27.6529 61.9604 28.0877 61.5693C28.5226 61.1781 28.7864 60.6278 28.8212 60.0394L31.0087 41.2466C31.0087 41.18 31.0087 41.1134 31.0087 41.0469H33.1962C33.1962 41.1134 33.1962 41.18 33.1962 41.2466L35.3837 60.0394C35.4185 60.6278 35.6824 61.1781 36.1172 61.5693C36.5521 61.9604 37.1223 62.1603 37.7025 62.125C38.2826 62.0897 38.8252 61.8221 39.2108 61.381C39.5964 60.9399 39.7935 60.3616 39.7587 59.7731V41.0469V39.9375L39.0478 24.0956L42.154 27.1908L42.4275 27.457C42.6737 27.7132 42.9836 27.8972 43.3243 27.9895L50.0072 29.8422C50.2801 29.934 50.5681 29.9703 50.8549 29.9492C51.1416 29.9281 51.4215 29.8499 51.6784 29.719C51.9354 29.5882 52.1644 29.4073 52.3525 29.1867C52.5405 28.9661 52.6839 28.7101 52.7743 28.4333C52.8648 28.1565 52.9007 27.8643 52.8798 27.5735C52.859 27.2826 52.7819 26.9988 52.6529 26.7381C52.5239 26.4775 52.3456 26.2452 52.1281 26.0545C51.9106 25.8637 51.6582 25.7183 51.3853 25.6266Z" fill="#4D4D4D"/>
<path d="M49.6025 22.1875C53.2269 22.1875 56.165 19.2074 56.165 15.5312C56.165 11.8551 53.2269 8.875 49.6025 8.875C45.9782 8.875 43.04 11.8551 43.04 15.5312C43.04 19.2074 45.9782 22.1875 49.6025 22.1875Z" fill="#596A73"/>
<path d="M63.9523 35.5L58.9429 26.1923L58.7132 25.8041C58.4223 25.3888 58.0412 25.0468 57.5993 24.8044C57.1575 24.5621 56.6667 24.4259 56.1648 24.4062H43.0398C42.4649 24.4275 41.9056 24.6016 41.418 24.9112C40.9304 25.2208 40.5317 25.6549 40.2617 26.1702L35.2523 35.5C35.0747 35.8413 34.988 36.2237 35.0007 36.6094L35.3835 47.7031C35.3835 48.2916 35.614 48.8559 36.0242 49.272C36.4345 49.6881 36.9909 49.9219 37.571 49.9219C38.1512 49.9219 38.7076 49.6881 39.1178 49.272C39.5281 48.8559 39.7585 48.2916 39.7585 47.7031L40.1085 37.4858L42.6023 34.08L41.946 48.8125V49.9219V68.7812C41.9127 69.3697 42.1112 69.9475 42.4978 70.3875C42.8845 70.8275 43.4276 71.0937 44.0078 71.1276C44.5879 71.1614 45.1576 70.9601 45.5914 70.5679C46.0252 70.1758 46.2877 69.6249 46.321 69.0364C46.321 69.0364 48.5085 49.9884 48.5085 49.9219H50.696C50.696 49.9884 52.8835 69.0364 52.8835 69.0364C52.9169 69.6249 53.1794 70.1758 53.6132 70.5679C54.047 70.9601 54.6167 71.1614 55.1968 71.1276C55.777 71.0937 56.3201 70.8275 56.7068 70.3875C57.0934 69.9475 57.2919 69.3697 57.2585 68.7812V49.9219V48.8125L56.6023 34.08L59.096 37.4858L59.446 47.7031C59.446 48.2916 59.6765 48.8559 60.0867 49.272C60.497 49.6881 61.0534 49.9219 61.6335 49.9219C62.2137 49.9219 62.7701 49.6881 63.1803 49.272C63.5906 48.8559 63.821 48.2916 63.821 47.7031L64.2039 36.6094C64.2136 36.224 64.1271 35.8424 63.9523 35.5Z" fill="#596A73"/>
<path d="M14.6025 22.1875C18.2269 22.1875 21.165 19.2074 21.165 15.5312C21.165 11.8551 18.2269 8.875 14.6025 8.875C10.9782 8.875 8.04004 11.8551 8.04004 15.5312C8.04004 19.2074 10.9782 22.1875 14.6025 22.1875Z" fill="#596A73"/>
<path d="M0.252303 35.5L5.26168 26.1923L5.49137 25.8041C5.78233 25.3888 6.16341 25.0468 6.60525 24.8044C7.04708 24.5621 7.53787 24.4259 8.0398 24.4062H21.1648C21.7397 24.4275 22.299 24.6016 22.7866 24.9112C23.2742 25.2208 23.6729 25.6549 23.9429 26.1702L28.9523 35.5C29.1298 35.8413 29.2166 36.2237 29.2039 36.6094L28.8211 47.7031C28.8211 48.2916 28.5906 48.8559 28.1803 49.272C27.7701 49.6881 27.2137 49.9219 26.6336 49.9219C26.0534 49.9219 25.497 49.6881 25.0868 49.272C24.6765 48.8559 24.4461 48.2916 24.4461 47.7031L24.0961 37.4858L21.6023 34.08L22.2586 48.8125V49.9219V68.7812C22.2919 69.3697 22.0934 69.9475 21.7068 70.3875C21.3201 70.8275 20.777 71.0937 20.1968 71.1276C19.6167 71.1614 19.047 70.9601 18.6132 70.5679C18.1794 70.1758 17.9169 69.6249 17.8836 69.0364C17.8836 69.0364 15.6961 49.9884 15.6961 49.9219H13.5086C13.5086 49.9884 11.3211 69.0364 11.3211 69.0364C11.2877 69.6249 11.0252 70.1758 10.5914 70.5679C10.1576 70.9601 9.58793 71.1614 9.00777 71.1276C8.42761 71.0937 7.88446 70.8275 7.49782 70.3875C7.11117 69.9475 6.91269 69.3697 6.94605 68.7812V49.9219V48.8125L7.6023 34.08L5.10855 37.4858L4.75855 47.7031C4.75855 48.2916 4.52808 48.8559 4.11785 49.272C3.70761 49.6881 3.15121 49.9219 2.57105 49.9219C1.99089 49.9219 1.43449 49.6881 1.02426 49.272C0.614021 48.8559 0.383553 48.2916 0.383553 47.7031L0.000740512 36.6094C-0.00900267 36.224 0.0775361 35.8424 0.252303 35.5Z" fill="#596A73"/>
<path d="M57.2588 62.125C61.4872 62.125 64.915 58.6482 64.915 54.3594C64.915 50.0705 61.4872 46.5938 57.2588 46.5938C53.0304 46.5938 49.6025 50.0705 49.6025 54.3594C49.6025 58.6482 53.0304 62.125 57.2588 62.125Z" fill="#D8D9D3"/>
<path d="M63.4602 48.1136C61.7957 46.5839 59.615 45.762 57.3696 45.8181C55.1242 45.8741 52.986 46.8039 51.3978 48.4148C49.8095 50.0257 48.8929 52.1944 48.8376 54.4719C48.7823 56.7494 49.5926 58.9613 51.1008 60.6495C52.7653 62.1792 54.9459 63.0011 57.1914 62.945C59.4368 62.8889 61.5749 61.9592 63.1632 60.3483C64.7514 58.7373 65.6681 56.5686 65.7233 54.2911C65.7786 52.0137 64.9683 49.8018 63.4602 48.1136ZM57.2586 47.7031C58.619 47.7047 59.9452 48.135 61.0539 48.9345L51.9102 58.2089C51.2142 57.2132 50.8016 56.0425 50.7174 54.825C50.6332 53.6075 50.8807 52.3899 51.4328 51.3054C51.985 50.2209 52.8204 49.3113 53.8479 48.6759C54.8753 48.0406 56.0553 47.7041 57.2586 47.7031ZM57.2586 61.0156C55.8982 61.014 54.572 60.5837 53.4633 59.7842L62.607 50.5098C63.303 51.5055 63.7156 52.6762 63.7998 53.8937C63.884 55.1112 63.6365 56.3288 63.0844 57.4133C62.5322 58.4978 61.6968 59.4074 60.6693 60.0427C59.6419 60.6781 58.4619 61.0146 57.2586 61.0156Z" fill="#4D4D4D"/>
</svg>
