<svg width="79" height="71" viewBox="0 0 79 71" fill="none" xmlns="http://www.w3.org/2000/svg">
<path d="M39.5006 15.9483L9.52919 42.6713C9.30701 42.8737 9.02311 42.968 8.77898 43.1358V68.7813C8.77898 69.3697 9.01018 69.9341 9.42171 70.3502C9.83324 70.7662 10.3914 71 10.9734 71H68.0279C68.6099 71 69.1681 70.7662 69.5796 70.3502C69.9911 69.9341 70.2223 69.3697 70.2223 68.7813V43.1414C69.9892 42.9805 69.7121 42.889 69.5009 42.6976L39.5006 15.9483ZM52.6671 52.141C52.6671 52.4352 52.5515 52.7174 52.3457 52.9254C52.1399 53.1335 51.8609 53.2503 51.5699 53.2503H43.8895V61.0158C43.8895 61.31 43.7739 61.5922 43.5681 61.8003C43.3623 62.0083 43.0832 62.1252 42.7922 62.1252H36.209C35.918 62.1252 35.639 62.0083 35.4332 61.8003C35.2274 61.5922 35.1118 61.31 35.1118 61.0158V53.2503H27.4314C27.1404 53.2503 26.8613 53.1335 26.6556 52.9254C26.4498 52.7174 26.3342 52.4352 26.3342 52.141V45.4849C26.3342 45.1907 26.4498 44.9085 26.6556 44.7004C26.8613 44.4924 27.1404 44.3755 27.4314 44.3755H35.1118V36.61C35.1118 36.3158 35.2274 36.0337 35.4332 35.8256C35.639 35.6176 35.918 35.5007 36.209 35.5007H42.7922C43.0832 35.5007 43.3623 35.6176 43.5681 35.8256C43.7739 36.0337 43.8895 36.3158 43.8895 36.61V44.3755H51.5699C51.8609 44.3755 52.1399 44.4924 52.3457 44.7004C52.5515 44.9085 52.6671 45.1907 52.6671 45.4849V52.141ZM78.2717 32.7661L43.1694 1.4269C42.1647 0.508495 40.8585 0 39.5041 0C38.1496 0 36.8434 0.508495 35.8387 1.4269L0.728261 32.7661C0.513786 32.9609 0.339357 33.1964 0.214939 33.4593C0.0905201 33.7222 0.0185495 34.0073 0.00313851 34.2983C-0.0122725 34.5894 0.0291781 34.8806 0.125122 35.1554C0.221066 35.4303 0.369624 35.6833 0.562309 35.9001L3.4987 39.2032C3.69129 39.42 3.92425 39.5964 4.18427 39.7222C4.44429 39.848 4.72627 39.9207 5.01411 39.9363C5.30196 39.9519 5.59001 39.91 5.86183 39.813C6.13365 39.716 6.3839 39.5658 6.59829 39.3709L38.0496 11.3209C38.4505 10.9633 38.9667 10.766 39.5013 10.766C40.0359 10.766 40.5522 10.9633 40.9531 11.3209L72.4044 39.3696C72.6188 39.5644 72.869 39.7146 73.1408 39.8116C73.4126 39.9086 73.7007 39.9505 73.9885 39.9349C74.2764 39.9193 74.5584 39.8466 74.8184 39.7208C75.0784 39.595 75.3114 39.4186 75.504 39.2018L78.439 35.8987C78.8275 35.4608 79.0282 34.8848 78.9968 34.2974C78.9654 33.7099 78.7046 33.1592 78.2717 32.7661Z" fill="#596A73"/>
</svg>
