<svg width="88" height="74" viewBox="0 0 88 74" fill="none" xmlns="http://www.w3.org/2000/svg">
<path d="M12.9853 19.5642C14.1952 24.1095 17.7159 27.3577 21.7053 27.3577C25.6947 27.3577 29.1936 24.0877 30.4253 19.5642C30.8956 19.2151 31.2878 18.7717 31.5769 18.2623C31.866 17.7528 32.0455 17.1887 32.104 16.6059C32.1625 16.0231 32.0986 15.4345 31.9165 14.8778C31.7345 14.3211 31.4381 13.8086 31.0466 13.373C31.2101 13.2531 31.3627 13.155 31.5153 13.0242C31.7781 12.7928 31.9418 12.469 31.9722 12.1201C32.0027 11.7712 31.8976 11.4239 31.6788 11.1505C31.46 10.877 31.1443 10.6982 30.7973 10.6514C30.4502 10.6045 30.0984 10.6931 29.8149 10.8987L29.7059 10.975C29.0141 9.42928 27.8985 8.11125 26.4883 7.17367C25.078 6.23609 23.431 5.71736 21.738 5.67761C17.7268 5.67761 14.2933 8.57701 13.0725 12.7735C12.5446 13.1683 12.1161 13.6808 11.8209 14.2702C11.5258 14.8596 11.3721 15.5097 11.3721 16.1689C11.3721 16.828 11.5258 17.4781 11.8209 18.0675C12.1161 18.6569 12.5446 19.1694 13.0725 19.5642H12.9853ZM15.2634 14.79H15.3615C15.8956 11.0404 18.5116 8.41351 21.6726 8.41351C22.8742 8.45123 24.0392 8.83553 25.0275 9.52012C26.0157 10.2047 26.7849 11.1604 27.2425 12.2721C25.614 12.7844 23.8498 12.6397 22.3266 11.8688C22.017 11.7056 21.6565 11.6678 21.3198 11.7631C20.9831 11.8585 20.696 12.0798 20.518 12.3811C20.34 12.6824 20.2848 13.0407 20.3638 13.3816C20.4428 13.7225 20.6499 14.02 20.9423 14.2123C22.2813 14.9353 23.7806 15.3101 25.3023 15.3023C26.3082 15.2928 27.3058 15.1198 28.2562 14.79C28.5715 14.852 28.8543 15.0243 29.0541 15.276C29.2538 15.5277 29.3574 15.8423 29.3462 16.1634C29.358 16.3422 29.3338 16.5215 29.2751 16.6907C29.2164 16.86 29.1244 17.0158 29.0045 17.1489C28.8846 17.282 28.7393 17.3897 28.577 17.4657C28.4148 17.5417 28.239 17.5844 28.06 17.5913H27.9619C27.4605 21.4608 24.79 24.6 21.6726 24.6C18.5552 24.6 15.8847 21.4281 15.3615 17.5477H15.2634C14.9259 17.4962 14.6181 17.3255 14.3957 17.0666C14.1732 16.8076 14.0509 16.4775 14.0509 16.1362C14.0509 15.7948 14.1732 15.4647 14.3957 15.2058C14.6181 14.9468 14.9259 14.7761 15.2634 14.7246V14.79Z" fill="#596A73"/>
<path d="M1.72578 35.6199H41.1402C41.5015 35.6199 41.8481 35.4763 42.1036 35.2208C42.3591 34.9653 42.5027 34.6187 42.5027 34.2574V2.05879C42.5027 1.69743 42.3591 1.35088 42.1036 1.09536C41.8481 0.839839 41.5015 0.696289 41.1402 0.696289H1.72578C1.36442 0.696289 1.01787 0.839839 0.762348 1.09536C0.50683 1.35088 0.363281 1.69743 0.363281 2.05879V34.2574C0.363281 34.6187 0.50683 34.9653 0.762348 35.2208C1.01787 35.4763 1.36442 35.6199 1.72578 35.6199ZM10.3259 32.884C10.2658 32.5813 10.2707 32.2693 10.3403 31.9687C10.4098 31.668 10.5424 31.3856 10.7292 31.14C11.4159 30.268 12.9092 29.7666 15.0892 29.7012C16.8178 31.2855 19.0773 32.1644 21.4221 32.1646C23.7641 32.167 26.0211 31.2875 27.7441 29.7012C29.9241 29.7666 31.4392 30.268 32.1041 31.14C32.2879 31.3914 32.4185 31.6777 32.4878 31.9813C32.5572 32.2849 32.5638 32.5995 32.5074 32.9058H10.3259V32.884ZM3.08828 3.45399H39.7668V32.884H35.276C35.4062 31.6641 35.0671 30.4404 34.3277 29.4614C33.0306 27.7719 30.6435 26.9108 27.21 26.9108C27.0289 26.9119 26.8498 26.9491 26.6832 27.0202C26.5167 27.0913 26.3659 27.1949 26.2399 27.325C25.6199 27.976 24.8741 28.4942 24.0479 28.8484C23.2216 29.2025 22.332 29.3851 21.433 29.3851C20.534 29.3851 19.6444 29.2025 18.8181 28.8484C17.9918 28.4942 17.2461 27.976 16.6261 27.325C16.498 27.1946 16.3454 27.0909 16.177 27.0198C16.0086 26.9487 15.8278 26.9116 15.6451 26.9108C12.2225 26.9108 9.82448 27.7719 8.53828 29.4614C7.80188 30.4422 7.45966 31.6633 7.57908 32.884H3.08828V3.45399Z" fill="#596A73"/>
<path d="M86.4296 0.696289H47.0261C46.6647 0.696289 46.3182 0.839839 46.0626 1.09536C45.8071 1.35088 45.6636 1.69743 45.6636 2.05879V34.2574C45.6636 34.6187 45.8071 34.9653 46.0626 35.2208C46.3182 35.4763 46.6647 35.6199 47.0261 35.6199H86.4296C86.7909 35.6199 87.1375 35.4763 87.393 35.2208C87.6485 34.9653 87.7921 34.6187 87.7921 34.2574V2.05879C87.7921 1.69743 87.6485 1.35088 87.393 1.09536C87.1375 0.839839 86.7909 0.696289 86.4296 0.696289ZM55.6262 32.884C55.5687 32.5819 55.5738 32.2713 55.6413 31.9713C55.7088 31.6713 55.8372 31.3883 56.0186 31.14C56.7162 30.268 58.1986 29.7666 60.3786 29.7012C62.1055 31.2844 64.3632 32.1628 66.706 32.1628C69.0489 32.1628 71.3066 31.2844 73.0335 29.7012C75.2135 29.7666 76.7177 30.268 77.3935 31.14C77.5815 31.3891 77.7138 31.6756 77.7815 31.9803C77.8492 32.2849 77.8507 32.6005 77.7859 32.9058H55.6262V32.884ZM56.7925 25.0469C57.0985 23.6417 57.8659 22.3793 58.9725 21.4608C60.553 24.9815 63.605 27.3577 66.9949 27.3577C70.3848 27.3577 73.4368 24.9815 75.0064 21.4608C76.1149 22.3776 76.8828 23.6407 77.1864 25.0469C77.2712 25.9064 77.0126 26.7645 76.467 27.434C75.195 27.0713 73.8764 26.8987 72.5539 26.9217C72.3711 26.9226 72.1903 26.9596 72.022 27.0307C71.8536 27.1018 71.7009 27.2055 71.5729 27.3359C70.9538 27.9866 70.209 28.5046 69.3836 28.8586C68.5582 29.2126 67.6695 29.3952 66.7714 29.3952C65.8733 29.3952 64.9846 29.2126 64.1592 28.8586C63.3338 28.5046 62.589 27.9866 61.97 27.3359C61.8419 27.2055 61.6893 27.1018 61.5209 27.0307C61.3525 26.9596 61.1717 26.9226 60.989 26.9217C59.8036 26.9047 58.6208 27.0365 57.4683 27.3141C56.9679 26.6692 56.7269 25.8605 56.7925 25.0469ZM62.3079 15.3459C64.0354 15.3219 65.7377 14.9279 67.3001 14.1905C67.4797 14.1305 67.6448 14.0337 67.7849 13.9064C67.9251 13.779 68.0371 13.6238 68.1139 13.4507C68.1907 13.2776 68.2305 13.0904 68.2309 12.901C68.2313 12.7117 68.1923 12.5243 68.1162 12.3509C68.0401 12.1775 67.9288 12.0218 67.7892 11.8939C67.6496 11.7659 67.4849 11.6684 67.3055 11.6077C67.1262 11.5469 66.9361 11.5242 66.7475 11.541C66.5589 11.5578 66.3759 11.6138 66.2101 11.7053C64.7017 12.4509 63.0069 12.7353 61.3378 12.5228C61.766 11.3504 62.5339 10.3323 63.5435 9.59838C64.5531 8.8645 65.7585 8.44818 67.0058 8.40259C70.1559 8.40259 72.7828 11.0295 73.3169 14.7791H73.415C73.7524 14.8306 74.0603 15.0013 74.2827 15.2603C74.5051 15.5192 74.6274 15.8493 74.6274 16.1906C74.6274 16.532 74.5051 16.8621 74.2827 17.121C74.0603 17.38 73.7524 17.5507 73.415 17.6022H73.3169C72.7501 21.4608 70.1341 24.6 66.9731 24.6C63.8121 24.6 61.1743 21.4281 60.662 17.5477H60.5639C60.3891 17.5379 60.2181 17.4938 60.0604 17.4178C59.9028 17.3418 59.7617 17.2355 59.6452 17.1048C59.5288 16.9742 59.4393 16.8219 59.3818 16.6566C59.3243 16.4913 59.3001 16.3163 59.3104 16.1416C59.3099 15.9119 59.364 15.6854 59.4682 15.4807C59.5725 15.2761 59.7238 15.0991 59.9099 14.9644C60.6864 15.2074 61.4942 15.3359 62.3079 15.3459ZM85.0671 32.8949H80.5763C80.7011 31.6737 80.3584 30.4507 79.6171 29.4723C79.3948 29.1881 79.1427 28.9287 78.865 28.6984C79.6592 27.5369 80.0111 26.1294 79.8569 24.7308C79.5517 22.1039 77.5243 20.0111 76.3035 18.9756C76.9942 18.2091 77.3818 17.217 77.3935 16.1852C77.3988 15.5205 77.2452 14.8641 76.9457 14.2707C76.6461 13.6773 76.2092 13.164 75.6713 12.7735C74.4614 8.57699 71.0279 5.67759 67.0167 5.67759C65.2361 5.72613 63.5095 6.29919 62.0533 7.32494C60.5971 8.35069 59.4761 9.78348 58.8308 11.4437C58.6932 11.3393 58.5655 11.2226 58.4493 11.0949C58.3365 10.9571 58.1975 10.8429 58.0405 10.759C57.8834 10.675 57.7113 10.6229 57.534 10.6057C57.3568 10.5885 57.1779 10.6065 57.0076 10.6586C56.8373 10.7108 56.679 10.7961 56.5418 10.9096C56.2636 11.1395 56.0871 11.4696 56.0504 11.8286C56.0136 12.1876 56.1197 12.5466 56.3456 12.828C56.6743 13.1786 57.0397 13.4928 57.4356 13.7654C56.9364 14.4733 56.6697 15.319 56.6726 16.1852C56.6843 17.217 57.0718 18.2091 57.7626 18.9756C56.5527 20.0111 54.4926 22.1039 54.2201 24.7308C54.0698 26.0242 54.3618 27.3304 55.0485 28.4368C54.3417 28.9303 53.78 29.604 53.4215 30.388C53.0631 31.1719 52.9211 32.0375 53.0102 32.8949H48.3886V3.46489H85.0671V32.8949Z" fill="#596A73"/>
<path d="M58.2747 57.3001C59.4846 61.8454 63.0053 65.0936 66.9947 65.0936C70.9841 65.0936 74.4721 61.8236 75.7147 57.3001C76.2445 56.9066 76.6749 56.3946 76.9714 55.805C77.268 55.2154 77.4224 54.5647 77.4224 53.9047C77.4224 53.2448 77.268 52.594 76.9714 52.0044C76.6749 51.4148 76.2445 50.9028 75.7147 50.5094C74.5048 46.3129 71.0713 43.4135 67.0601 43.4135C63.0489 43.4135 59.6045 46.3129 58.3401 50.5094C57.8102 50.9028 57.3798 51.4148 57.0833 52.0044C56.7868 52.594 56.6323 53.2448 56.6323 53.9047C56.6323 54.5647 56.7868 55.2154 57.0833 55.805C57.3798 56.3946 57.8102 56.9066 58.3401 57.3001H58.2747ZM72.5319 49.9644C71.3312 49.8922 70.1721 49.4978 69.1765 48.8226C68.181 48.1475 67.3859 47.2164 66.8748 46.1276H66.9729C68.1701 46.1655 69.3311 46.5475 70.3169 47.228C71.3028 47.9084 72.0718 48.8584 72.5319 49.9644ZM60.5419 52.4823H60.64C60.7596 51.3305 61.1447 50.2221 61.7651 49.2443C62.3854 48.2665 63.2241 47.4459 64.2152 46.847C64.9135 48.5866 66.118 50.0766 67.6726 51.1241C69.2273 52.1716 71.0606 52.7282 72.9352 52.7221C73.1567 52.7146 73.3733 52.6548 73.5674 52.5477C73.8477 52.6395 74.0906 52.8199 74.2597 53.0617C74.4287 53.3034 74.5147 53.5935 74.5048 53.8884C74.5257 54.2394 74.4067 54.5844 74.1738 54.848C73.9409 55.1115 73.6131 55.272 73.2622 55.2945H73.1641C72.6409 59.164 70.014 62.3359 66.853 62.3359C63.692 62.3359 61.0542 59.164 60.5419 55.2945H60.4438C60.0908 55.2634 59.7623 55.1013 59.523 54.84C59.2837 54.5787 59.1509 54.2372 59.1509 53.8829C59.1509 53.5286 59.2837 53.1871 59.523 52.9258C59.7623 52.6645 60.0908 52.5024 60.4438 52.4714L60.5419 52.4823Z" fill="#596A73"/>
<path d="M42.4918 71.9714V39.7837C42.4933 39.6053 42.4594 39.4283 42.3921 39.2631C42.3248 39.0979 42.2255 38.9476 42.0998 38.8209C41.9742 38.6942 41.8247 38.5937 41.66 38.5251C41.4953 38.4565 41.3186 38.4212 41.1402 38.4212H1.72583C1.54649 38.4197 1.36867 38.454 1.20271 38.5219C1.03674 38.5899 0.885966 38.6902 0.759156 38.817C0.632345 38.9438 0.532039 39.0946 0.464082 39.2606C0.396124 39.4265 0.361873 39.6044 0.363326 39.7837V71.9714C0.363326 72.3327 0.506874 72.6793 0.762393 72.9348C1.01791 73.1903 1.36447 73.3339 1.72583 73.3339H41.1402C41.4997 73.331 41.8435 73.1862 42.0966 72.931C42.3498 72.6758 42.4918 72.3309 42.4918 71.9714ZM10.3259 70.5762C10.2644 70.2767 10.2666 69.9676 10.3323 69.6691C10.3981 69.3705 10.5259 69.0891 10.7074 68.8431C11.3832 67.9493 12.8874 67.437 15.0674 67.3716C16.796 68.9559 19.0556 69.8348 21.4003 69.835C23.7423 69.8374 25.9994 68.9579 27.7223 67.3716C29.9023 67.437 31.4174 67.9384 32.0823 68.8104C32.2661 69.0618 32.3967 69.3481 32.4661 69.6517C32.5354 69.9553 32.5421 70.2699 32.4856 70.5762H10.3259ZM12.4514 64.93C12.0944 64.6487 11.8093 64.2865 11.6198 63.8734C11.4303 63.4602 11.3417 63.0079 11.3614 62.5538C11.7317 61.2211 12.5619 60.0627 13.7049 59.2838C15.2854 62.7718 18.3265 65.1153 21.6837 65.1153C25.0409 65.1153 27.9839 62.8481 29.5862 59.4582C30.6577 60.2174 31.4291 61.3282 31.7662 62.5974C31.7859 63.0515 31.6974 63.5038 31.5079 63.917C31.3183 64.3301 31.0333 64.6923 30.6762 64.9736C29.5705 64.7295 28.4404 64.6125 27.3081 64.6248C27.127 64.6259 26.9479 64.6631 26.7814 64.7342C26.6148 64.8053 26.4641 64.9089 26.338 65.039C25.718 65.69 24.9723 66.2082 24.146 66.5624C23.3197 66.9165 22.4301 67.0991 21.5311 67.0991C20.6321 67.0991 19.7425 66.9165 18.9162 66.5624C18.09 66.2082 17.3442 65.69 16.7242 65.039C16.5961 64.9086 16.4435 64.8049 16.2751 64.7338C16.1068 64.6627 15.926 64.6256 15.7432 64.6248C14.674 64.6146 13.6068 64.7206 12.5604 64.9409C12.5604 64.9409 12.4623 64.93 12.4514 64.93ZM28.0602 55.3053H27.9621C27.4389 59.1748 24.812 62.3467 21.651 62.3467C18.49 62.3467 15.8631 59.1748 15.3399 55.3053H15.2418C14.8909 55.2828 14.5631 55.1223 14.3302 54.8588C14.0973 54.5953 13.9783 54.2502 13.9992 53.8992C13.9915 53.6399 14.0556 53.3836 14.1845 53.1585C14.3134 52.9335 14.502 52.7484 14.7295 52.6239C15.4053 52.7497 16.0914 52.8117 16.7787 52.8092C18.1073 52.8539 19.4284 52.5943 20.6413 52.0503C21.8541 51.5062 22.9265 50.692 23.7765 49.67C23.8889 49.5304 23.9727 49.3701 24.0231 49.1982C24.0735 49.0262 24.0895 48.846 24.0703 48.6679C24.0511 48.4898 23.9969 48.3171 23.911 48.1599C23.8251 48.0027 23.709 47.864 23.5694 47.7516C23.4299 47.6392 23.2695 47.5554 23.0976 47.505C22.9257 47.4546 22.7455 47.4386 22.5673 47.4578C22.3892 47.4771 22.2166 47.5312 22.0594 47.6171C21.9021 47.7031 21.7634 47.8191 21.651 47.9587C20.967 48.7426 20.0989 49.3442 19.1248 49.7095C18.1507 50.0748 17.101 50.1923 16.0702 50.0515C16.5176 48.9222 17.2852 47.9482 18.2786 47.2492C19.272 46.5501 20.4479 46.1565 21.6619 46.1166C24.8229 46.1166 27.4498 48.7435 27.973 52.4931H28.0602C28.4132 52.5241 28.7417 52.6863 28.981 52.9476C29.2203 53.2089 29.3531 53.5503 29.3531 53.9046C29.3531 54.259 29.2203 54.6004 28.981 54.8617C28.7417 55.123 28.4132 55.2851 28.0602 55.3162V55.3053ZM39.745 70.5653H35.276C35.4062 69.3454 35.0671 68.1217 34.3277 67.1427C34.0202 66.7275 33.6529 66.3602 33.2377 66.0527C33.6886 65.5215 34.0289 64.9056 34.2385 64.2411C34.4481 63.5766 34.5229 62.877 34.4585 62.1832C34.1751 59.698 32.0932 57.8232 30.8397 56.8313C31.2735 56.4015 31.609 55.8828 31.8232 55.311C32.0374 54.7392 32.1253 54.1278 32.0808 53.5188C32.0362 52.9098 31.8604 52.3177 31.5652 51.7831C31.2701 51.2485 30.8627 50.7842 30.371 50.4221C29.1502 46.2256 25.7167 43.3262 21.651 43.3262C17.5853 43.3262 14.2063 46.2256 12.9855 50.4221C12.4515 50.8156 12.0182 51.3298 11.7207 51.9227C11.4233 52.5156 11.2703 53.1705 11.2742 53.8338C11.2546 54.8974 11.6449 55.9277 12.3642 56.7114C11.1325 57.6052 8.86532 59.5781 8.58192 62.1614C8.4349 63.513 8.82653 64.868 9.67193 65.9328C9.19421 66.2518 8.77096 66.6456 8.41843 67.0991C7.68203 68.0799 7.3398 69.301 7.45923 70.5217H3.08833V41.0917H39.7668L39.745 70.5653Z" fill="#596A73"/>
<path d="M86.4296 38.4212H47.0261C46.8468 38.4197 46.669 38.454 46.503 38.5219C46.337 38.5899 46.1863 38.6902 46.0594 38.817C45.9326 38.9438 45.8323 39.0946 45.7644 39.2606C45.6964 39.4265 45.6622 39.6044 45.6636 39.7837V71.9714C45.6636 72.3327 45.8072 72.6793 46.0627 72.9348C46.3182 73.1903 46.6648 73.3339 47.0261 73.3339H86.4296C86.791 73.3339 87.1375 73.1903 87.3931 72.9348C87.6486 72.6793 87.7921 72.3327 87.7921 71.9714V39.7837C87.7936 39.6044 87.7593 39.4265 87.6914 39.2606C87.6234 39.0946 87.5231 38.9438 87.3963 38.817C87.2695 38.6902 87.1187 38.5899 86.9527 38.5219C86.7868 38.454 86.609 38.4197 86.4296 38.4212ZM55.6153 70.5762C55.5585 70.2765 55.563 69.9684 55.6285 69.6706C55.6941 69.3727 55.8194 69.0912 55.9968 68.8431C56.6835 67.9493 58.1768 67.437 60.3568 67.3716C62.0837 68.9548 64.3414 69.8332 66.6843 69.8332C69.0271 69.8332 71.2848 68.9548 73.0117 67.3716C75.1917 67.437 76.6959 67.9384 77.3717 68.8104C77.5597 69.0595 77.692 69.346 77.7597 69.6507C77.8274 69.9553 77.8289 70.2709 77.7641 70.5762H55.6262C55.6262 70.5762 55.6262 70.5871 55.6153 70.5762ZM85.0453 70.5762H80.5763C80.7012 69.355 80.3584 68.132 79.6171 67.1536C78.3309 65.4641 75.9329 64.603 72.5103 64.603C72.3276 64.6038 72.1468 64.6409 71.9784 64.712C71.81 64.7831 71.6574 64.8868 71.5293 65.0172C70.9103 65.6679 70.1655 66.1859 69.3401 66.5399C68.5147 66.8939 67.626 67.0765 66.7279 67.0765C65.8298 67.0765 64.941 66.8939 64.1157 66.5399C63.2903 66.1859 62.5454 65.6679 61.9264 65.0172C61.7983 64.8868 61.6457 64.7831 61.4773 64.712C61.309 64.6409 61.1282 64.6038 60.9454 64.603C57.5119 64.603 55.1248 65.4641 53.8277 67.1536C53.0932 68.135 52.7547 69.3567 52.8794 70.5762H48.3886V41.1462H85.0671L85.0453 70.5762Z" fill="#596A73"/>
</svg>
