<svg width="148" height="73" viewBox="0 0 148 73" fill="none" xmlns="http://www.w3.org/2000/svg">
<path d="M48.8515 12.7661C52.0376 12.7661 54.6206 10.1833 54.6206 6.997C54.6206 3.81114 52.0376 1.22803 48.8515 1.22803C45.6658 1.22803 43.0825 3.81114 43.0825 6.997C43.0825 10.1833 45.6658 12.7661 48.8515 12.7661Z" fill="#596A73"/>
<path d="M48.8051 49.3656C48.3596 49.3656 47.9985 49.7267 47.9986 50.1721L48.0008 69.347C48.0008 72.9779 42.561 72.9779 42.561 69.347L42.559 52.6401C42.5588 50.9079 41.1546 49.5038 39.4224 49.5038C37.3354 49.5038 35.8304 47.5038 36.4084 45.4984L42.8482 23.1549C42.9559 22.7814 42.6755 22.4088 42.2867 22.4088C42.0282 22.4088 41.8003 22.5788 41.7267 22.8267L37.3083 37.694C36.227 41.0278 31.6499 39.6582 32.6971 36.0883L37.7407 19.4823C38.2814 17.5886 40.6763 14.2314 44.8217 14.2314H48.6442H52.7582C56.8668 14.2314 59.2725 17.6168 59.8942 19.4823L64.94 36.0721C65.9491 39.6402 61.408 41.1179 60.3267 37.6399L55.9202 22.8602C55.8403 22.5924 55.594 22.4088 55.3146 22.4088C54.8935 22.4088 54.5902 22.8128 54.7077 23.2171L61.1791 45.491C61.7623 47.4983 60.2565 49.5038 58.1662 49.5038C56.4334 49.5038 55.0287 50.9085 55.0287 52.6413V69.3738C55.0287 72.9779 49.6115 72.9599 49.6115 69.3738V50.172C49.6115 49.7266 49.2505 49.3656 48.8051 49.3656Z" fill="#596A73"/>
<path d="M16.309 12.7661C19.4951 12.7661 22.0781 10.1833 22.0781 6.997C22.0781 3.81114 19.4951 1.22803 16.309 1.22803C13.1233 1.22803 10.54 3.81114 10.54 6.997C10.54 10.1833 13.1233 12.7661 16.309 12.7661Z" fill="#596A73"/>
<path d="M16.2626 49.3656C15.8171 49.3656 15.4561 49.7267 15.4561 50.1721L15.4583 69.347C15.4583 72.9779 10.0185 72.9779 10.0185 69.347L10.0166 52.6401C10.0164 50.9079 8.61207 49.5038 6.87987 49.5038C4.7929 49.5038 3.2879 47.5038 3.86588 45.4984L10.3057 23.1549C10.4134 22.7814 10.133 22.4088 9.74426 22.4088C9.48567 22.4088 9.25784 22.5788 9.18417 22.8267L4.76577 37.694C3.68455 41.0278 -0.892622 39.6582 0.154578 36.0883L5.19826 19.4823C5.73887 17.5886 8.13385 14.2314 12.2793 14.2314H16.1017H20.2157C24.3243 14.2314 26.73 17.6168 27.3518 19.4823L32.3975 36.0721C33.4066 39.6402 28.8655 41.1179 27.7843 37.6399L23.3777 22.8602C23.2979 22.5924 23.0516 22.4088 22.7721 22.4088C22.351 22.4088 22.0477 22.8128 22.1652 23.2171L28.6367 45.491C29.2198 47.4983 27.714 49.5038 25.6238 49.5038C23.891 49.5038 22.4863 50.9085 22.4863 52.6413V69.3738C22.4863 72.9779 17.0691 72.9599 17.0691 69.3738V50.172C17.0691 49.7266 16.708 49.3656 16.2626 49.3656Z" fill="#596A73"/>
<path d="M81.3944 11.5466C84.5806 11.5466 87.1635 8.96381 87.1635 5.77752C87.1635 2.59166 84.5806 0.00854492 81.3944 0.00854492C78.2087 0.00854492 75.6255 2.59166 75.6255 5.77752C75.6255 8.96381 78.2087 11.5466 81.3944 11.5466Z" fill="#596A73"/>
<path d="M81.348 48.1462C80.9026 48.1462 80.5415 48.5073 80.5416 48.9528L80.5438 68.1276C80.5438 71.7585 75.1039 71.7585 75.1039 68.1276L75.102 51.4208C75.1018 49.6886 73.6975 48.2845 71.9653 48.2845C69.8784 48.2845 68.3733 46.2844 68.9513 44.2791L75.3912 21.9356C75.4988 21.562 75.2185 21.1894 74.8297 21.1894C74.5711 21.1894 74.3433 21.3594 74.2696 21.6073L69.8512 36.4746C68.77 39.8084 64.1928 38.4388 65.24 34.8689L70.2837 18.2629C70.8243 16.3692 73.2193 13.0121 77.3647 13.0121H81.1872H85.3011C89.4098 13.0121 91.8154 16.3975 92.4372 18.2629L97.4829 34.8528C98.4921 38.4208 93.9509 39.8985 92.8697 36.4206L88.4632 21.6408C88.3833 21.373 88.137 21.1894 87.8575 21.1894C87.4365 21.1894 87.1332 21.5934 87.2507 21.9977L93.7221 44.2716C94.3053 46.2789 92.7995 48.2845 90.7092 48.2845C88.9764 48.2845 87.5717 49.6892 87.5717 51.4219V68.1545C87.5717 71.7585 82.1545 71.7405 82.1545 68.1545V48.9527C82.1545 48.5073 81.7934 48.1462 81.348 48.1462Z" fill="#596A73"/>
<path d="M129.843 12.5532C133.31 12.5532 136.12 9.74305 136.12 6.27659C136.12 2.81012 133.31 0 129.843 0C126.377 0 123.567 2.81012 123.567 6.27659C123.567 9.74305 126.377 12.5532 129.843 12.5532Z" fill="#596A73"/>
<path d="M147.104 39.3856C147.104 38.8521 146.886 38.3388 146.763 37.8195L142.554 19.9282C142.397 19.3005 142.083 18.6728 141.612 18.2021C139.729 16.6329 137.532 15.5345 135.022 14.75C133.296 14.4361 131.57 14.1223 129.844 14.1223C128.118 14.1223 126.391 14.4361 124.665 14.9069C122.155 15.5345 119.958 16.7899 118.075 18.359C117.604 18.8298 117.29 19.4574 117.134 20.0851L112.924 37.9764C112.802 38.4957 112.583 39.0091 112.583 39.5425C112.583 41.2686 113.995 42.6808 115.721 42.6808C117.134 42.6808 118.389 41.5824 118.703 40.3271C119.167 38.4038 121.998 38.7406 121.998 40.7191V67.4733C121.998 69.2065 123.403 70.6116 125.136 70.6116C126.869 70.6116 128.274 69.2065 128.274 67.4733V43.9361C128.274 43.0695 128.977 42.367 129.844 42.367C130.71 42.367 131.413 43.0695 131.413 43.9361V67.4733C131.413 69.2065 132.818 70.6116 134.551 70.6116C136.284 70.6116 137.689 69.2065 137.689 67.4733V40.5622C137.689 38.5837 140.52 38.2468 140.985 40.1701C141.298 41.4255 142.554 42.5239 143.966 42.5239C145.692 42.5239 147.104 41.1116 147.104 39.3856Z" fill="#596A73"/>
</svg>
