<svg width="92" height="92" viewBox="0 0 92 92" fill="none" xmlns="http://www.w3.org/2000/svg">
<rect width="92" height="92" rx="46" fill="#C7CBC4" fill-opacity="0.5"/>
<path d="M34.7713 69.1237C35.0709 69.1237 35.3206 68.874 35.3206 68.5743V57.5868C35.3206 57.437 35.3206 53.3414 32.6239 49.7454C31.5251 48.2973 30.7259 46.8985 30.2765 45.4503C29.0279 41.5551 27.2797 31.9156 37.9677 26.222C38.0676 26.1221 49.5046 20.4285 58.0949 28.2698C59.743 29.7682 60.8917 31.616 61.4411 33.6637C61.9905 35.6115 62.0905 37.7091 61.8407 39.8568C61.7909 40.1066 61.7407 40.4062 61.6909 40.656V40.7058C61.5411 41.505 61.3411 43.6524 62.6897 45.7002L65.0869 49.1463C65.1367 49.2962 65.2367 49.5958 65.0869 49.7957C64.9869 49.9953 64.6873 50.0953 64.4375 50.1455C64.2877 50.1455 63.7882 50.2455 63.3388 50.3953C63.0392 50.5451 62.8392 50.7949 62.7396 51.0945C62.6897 51.3941 62.7396 51.7439 62.9392 51.9933C63.0392 52.0933 63.0392 52.1929 63.0392 52.1929C63.0392 52.1929 62.9893 52.2427 62.8395 52.3427C62.5897 52.4925 62.3901 52.6925 62.34 52.9921C62.24 53.2419 62.2901 53.5415 62.4399 53.7913C62.5399 53.9411 62.5399 54.041 62.5399 54.0909C62.5399 54.0909 62.4901 54.1909 62.1403 54.3407C61.6408 54.4905 61.3412 54.99 61.4411 55.4893C61.5411 56.0383 61.8407 58.0359 60.9917 59.0351C60.642 59.4845 60.0427 59.6845 59.2937 59.6845L56.497 59.4347C54.2496 59.235 52.152 60.7832 51.7524 63.0306C51.5027 64.4788 51.3528 66.3768 51.3528 68.6242C51.3528 68.9238 51.6026 69.1736 51.9022 69.1736C52.2019 69.1736 52.4516 68.9238 52.4516 68.6242C52.4516 66.4768 52.6014 64.6788 52.8512 63.2801C53.1508 61.6319 54.6991 60.4833 56.3472 60.633L59.1942 60.9327C60.3428 60.9327 61.2419 60.5829 61.8412 59.8837C62.8902 58.6351 62.74 56.6375 62.5404 55.4885C63.0898 55.2889 63.4392 55.0391 63.5893 54.6395C63.6893 54.3898 63.7392 53.9902 63.4894 53.4909C63.889 53.2411 64.0886 52.9415 64.1886 52.5921C64.2384 52.3423 64.2384 51.9929 63.9388 51.5933C64.1886 51.5435 64.4383 51.4934 64.538 51.4934H64.5878C65.3368 51.3436 65.8364 51.0439 66.0862 50.5443C66.4858 49.7953 66.136 48.946 66.0862 48.8463V48.5467L63.689 45.0508C62.5902 43.3528 62.74 41.6046 62.84 40.9055V40.8557C62.8898 40.556 62.94 40.3063 62.9898 40.0067C63.2894 37.7091 63.1396 35.4617 62.5404 33.3642C61.9412 31.1168 60.6926 29.1188 58.8946 27.471C49.705 19.0301 37.5687 25.1233 37.4679 25.1734C25.6313 31.4662 28.1784 42.5538 29.2274 45.8001C29.727 47.3483 30.576 48.8467 31.7744 50.4447C34.2716 53.6908 34.2716 57.5367 34.2716 57.5864V68.574C34.2218 68.8743 34.4716 69.1237 34.7713 69.1237Z" fill="black"/>
<path d="M34.0221 36.4607C34.2217 36.4607 34.4715 36.3109 34.5715 36.1109C34.6715 35.8113 34.5715 35.4615 34.2719 35.3619C25.3819 31.6161 21.836 28.37 22.2355 26.8716C22.6849 25.3234 28.029 24.674 37.3684 26.372C37.668 26.4218 37.9676 26.2222 38.0178 25.9226C38.0676 25.623 37.868 25.3234 37.5684 25.2732C33.9724 24.6238 22.2357 22.7262 21.087 26.5717C19.9882 30.2174 29.5773 34.6624 33.7726 36.4105C33.8726 36.4109 33.9723 36.4607 34.0224 36.4607L34.0221 36.4607Z" fill="black"/>
<path d="M57.2463 43.0033C57.5459 43.0033 57.7957 42.8037 57.7957 42.5037C57.8455 42.2041 57.6459 41.9045 57.2961 41.8543C53.3507 41.2551 48.9057 40.256 44.4606 38.9576C43.961 38.8078 43.4116 38.658 42.9124 38.5082C42.6128 38.4082 42.2631 38.558 42.2132 38.9078C42.1132 39.2074 42.2631 39.5572 42.6128 39.607C43.1124 39.7568 43.6618 39.9066 44.161 40.0564C48.6557 41.405 53.1508 42.4038 57.1463 43.003C57.1965 43.0033 57.2463 43.0033 57.2463 43.0033Z" fill="black"/>
<path d="M64.1883 43.6027C64.7377 43.6027 65.2373 43.6027 65.7365 43.5528C68.783 43.403 70.481 42.6038 70.8807 41.2553C71.6798 38.5585 66.6353 35.4119 62.2904 33.2641C61.9908 33.1143 61.641 33.2143 61.5413 33.5139C61.3915 33.8135 61.4915 34.1633 61.7911 34.2629C68.2337 37.5094 70.1317 39.8569 69.7819 40.9556C69.5321 41.7548 68.0337 42.3042 65.6366 42.454C64.6378 42.5038 63.539 42.5038 62.2904 42.454C61.9908 42.4042 61.6912 42.7038 61.6912 43.0034C61.6912 43.303 61.941 43.6026 62.2406 43.6026L64.1883 43.6027Z" fill="black"/>
<path d="M70.3311 28.2198C70.5809 28.2198 70.7805 28.07 70.8805 27.8202C71.0303 27.3708 71.0303 26.9214 70.9303 26.5218C69.8319 22.976 59.693 24.3242 55.3979 25.0736C55.0982 25.1234 54.8983 25.4234 54.9484 25.723C54.9983 26.0226 55.2982 26.2226 55.5978 26.1724C64.7375 24.6242 69.3813 25.423 69.7818 26.8716C69.8316 27.0712 69.8316 27.2712 69.732 27.521C69.632 27.8206 69.7818 28.1703 70.0817 28.2201C70.1814 28.2198 70.2315 28.2198 70.3312 28.2198L70.3311 28.2198Z" fill="black"/>
<path d="M51.9019 38.7581C51.9517 38.7581 52.0019 38.7581 52.1015 38.7083C55.8972 37.4099 59.4432 35.9613 62.3899 34.5132C62.6895 34.3634 62.7895 34.0136 62.6397 33.7641C62.4899 33.4645 62.1401 33.3646 61.8907 33.5144C58.994 34.9625 55.4979 36.4111 51.7521 37.6597C51.4525 37.7597 51.3027 38.1091 51.4024 38.4087C51.4525 38.6083 51.6525 38.7581 51.9019 38.7581Z" fill="black"/>
<path d="M27.8291 43.6026C31.2753 43.6026 35.5202 43.0034 39.5658 42.1544C39.8654 42.1046 40.0654 41.8046 40.0152 41.4552C39.9654 41.1556 39.6655 40.9556 39.3161 41.0058C28.8279 43.2034 22.6848 42.6042 22.1854 40.9058C21.8858 39.8568 23.7838 37.4596 30.1263 34.3131C30.426 34.1633 30.5259 33.8135 30.3761 33.5641C30.2263 33.2645 29.8766 33.1645 29.6271 33.3143C25.2821 35.4617 20.2877 38.6082 21.0866 41.2552C21.6356 42.9536 24.2826 43.6026 27.8288 43.6026L27.8291 43.6026Z" fill="black"/>
<path d="M66.0363 33.8136C66.3359 33.8136 66.5857 33.6638 66.7853 33.414L67.4347 32.365L68.6833 32.3152C69.0331 32.3152 69.2825 32.1155 69.4323 31.8156C69.5821 31.516 69.5323 31.1662 69.2825 30.9168L68.4833 29.9678L68.8331 28.769C68.9331 28.4694 68.8331 28.1197 68.5833 27.92C68.3335 27.7204 67.9841 27.6204 67.6845 27.7702L66.5359 28.2698L65.4869 27.5706C65.1873 27.371 64.8877 27.371 64.5881 27.5706C64.2885 27.7204 64.1387 28.0702 64.1885 28.3698L64.2885 29.6184L63.2897 30.4176C63.0399 30.6172 62.9399 30.967 62.9901 31.2666C63.0399 31.5662 63.2897 31.816 63.6395 31.9159L64.7877 32.0654L65.2371 33.2641C65.3371 33.5637 65.6367 33.7637 65.9363 33.8135L66.0363 33.8136ZM68.0841 31.1164L67.2351 31.1663C66.9355 31.1663 66.6857 31.3161 66.5359 31.5658L66.0865 32.265L65.7869 31.4659C65.6869 31.2161 65.4873 31.0165 65.1877 30.9165L64.3885 30.7168L65.0379 30.2173C65.2375 30.0176 65.3876 29.7679 65.3375 29.4683L65.2877 28.6193L65.9869 29.0687C66.2366 29.2185 66.5362 29.2683 66.786 29.1687L67.535 28.869L67.3354 29.6682C67.2354 29.918 67.3354 30.2176 67.4852 30.4674L68.0841 31.1164Z" fill="black"/>
<path d="M39.6158 40.2564C39.7158 40.2564 39.8154 40.2564 39.8656 40.2066C40.1652 40.1066 40.415 39.8569 40.4648 39.5074L40.6644 38.109L41.913 37.5098C42.2126 37.36 42.4126 37.0604 42.4126 36.7106C42.4126 36.3609 42.213 36.0613 41.913 35.9115L40.6644 35.2621L40.4648 33.8637C40.415 33.5139 40.215 33.2644 39.8656 33.1645C39.566 33.0645 39.2162 33.1146 38.9668 33.3641L37.968 34.3629L36.6194 34.1131C36.2697 34.0633 35.9701 34.1629 35.7704 34.4629C35.5708 34.7126 35.5207 35.1122 35.6705 35.4119L36.3198 36.6605L35.6705 37.909C35.5207 38.2087 35.5207 38.5584 35.7203 38.8581C35.9199 39.1577 36.2697 39.2577 36.5693 39.2078L38.0175 38.9581L38.9665 39.9568C39.1163 40.1568 39.366 40.2564 39.6158 40.2564ZM40.9644 36.7106L40.0656 37.16C39.8158 37.3099 39.6162 37.5098 39.566 37.8094L39.4162 38.8082L38.717 38.109C38.5174 37.9094 38.2174 37.8094 37.9178 37.8592L36.919 38.009L37.4186 37.1102C37.5684 36.8604 37.5684 36.5608 37.4186 36.311L36.9692 35.4122L37.968 35.6119C38.2676 35.6617 38.5672 35.562 38.7672 35.3621L39.4663 34.6629L39.6162 35.6617C39.666 35.9613 39.8158 36.2111 40.1157 36.311L40.9644 36.7106Z" fill="black"/>
</svg>
