<svg width="88" height="49" viewBox="0 0 88 49" fill="none" xmlns="http://www.w3.org/2000/svg">
<path d="M80.3265 11.2818C79.6509 10.6126 78.5415 10.6126 77.8654 11.2818C77.1898 11.951 77.1898 13.05 77.8654 13.7198C78.5409 14.389 79.6503 14.389 80.3265 13.7198C81.002 13.0506 81.002 11.9516 80.3265 11.2818ZM34.991 23.4646C35.1306 23.2899 35.3042 23.1329 35.4857 23.0225C35.8009 22.8317 36.0938 23.3075 35.7786 23.4977C35.6187 23.595 35.4739 23.7417 35.3678 23.8949C36.1861 24.3707 36.8525 25.1405 36.8768 26.1161C38.813 28.6028 41.6567 27.866 41.4845 26.5789C41.4176 26.0784 40.4085 25.0509 40.1517 24.7412C39.41 23.8429 38.507 22.7018 38.0367 21.9047C37.1383 21.6088 34.579 20.7572 33.7802 20.7572C33.087 20.7572 32.5359 20.7747 32.0241 20.8006C33.1806 21.5185 34.1732 22.1696 34.9905 23.4645L34.991 23.4646ZM26.6923 26.5107C26.8614 26.1849 27.3613 26.44 27.1923 26.7658C26.9918 27.1482 27.1274 27.7116 27.4845 27.9628C27.7853 28.175 27.4596 28.6287 27.1589 28.4165C26.5757 28.0069 26.364 27.1372 26.6923 26.5107ZM32.0837 24.7186C32.4513 24.6758 32.5175 25.2295 32.1499 25.2723C31.2705 25.3781 31.3433 26.9891 32.1735 27.3467C32.7206 27.5824 33.3857 27.4155 33.8915 27.1533C34.2184 26.9839 34.4786 27.4772 34.1509 27.646C33.4872 27.99 32.6603 28.1633 31.9487 27.8569C30.7037 27.3207 30.4731 24.9119 32.0836 24.7178L32.0837 24.7186ZM17.3224 36.2244C17.8224 37.7225 20.4865 36.8995 21.3528 35.9836C20.824 35.2151 20.9629 34.2681 21.339 33.4696C19.984 34.3647 18.7233 35.3994 17.3224 36.2244ZM22.0402 36.6145C20.7107 38.0257 17.4882 38.7566 16.4955 36.6755C10.8238 39.5178 6.24815 36.5139 0.638707 36.5139C0.0208144 36.5139 0.0208144 35.5831 0.638707 35.5831C7.91382 35.5831 10.4615 38.9239 16.7721 35.4007C19.2411 34.022 21.2283 32.0896 23.9279 31.0388C27.168 29.7776 31.591 29.7828 34.3744 28.1335C35.35 27.5552 36.3151 26.664 35.808 25.6053C35.2537 24.4493 33.4977 24.1046 32.3896 24.1046C29.5335 24.1046 27.6471 24.6485 25.7514 25.1951C24.4469 25.5709 23.1724 25.9201 21.8253 26.1194C20.1125 26.3732 16.9765 25.5735 16.8356 23.4931C16.7944 22.8836 17.73 22.8219 17.7713 23.4314C17.8657 24.84 20.4171 25.3138 21.5324 25.2184C21.4086 23.8391 21.0718 22.3098 19.6447 21.6932C19.3059 21.5471 19.5306 21.0363 19.8694 21.183C21.5095 21.8918 21.9452 23.5346 22.0886 25.1366C22.4044 25.0827 22.7196 25.0204 23.0328 24.9529C24.3092 24.5284 23.9357 22.6987 25.6872 21.686C26.0069 21.5023 26.2887 21.9846 25.9689 22.1683C24.7705 22.8602 24.8648 23.6761 24.2751 24.6479C24.6865 24.5369 25.0889 24.4207 25.4912 24.3051C27.4569 23.7385 29.4121 23.1751 32.3902 23.1751C32.8548 23.1751 33.2951 23.2173 33.7046 23.2951C33.0415 22.5253 32.2546 22.0379 31.3655 21.4867C31.0673 21.3024 30.7587 21.1109 30.4455 20.9052C30.209 20.9214 29.9521 20.9383 29.652 20.9564C28.795 21.0077 26.4825 20.837 26.0167 20.012C25.7173 19.4791 26.5357 19.028 26.8351 19.5615C27.0277 19.9036 29.1796 20.0549 29.597 20.0302C30.7332 19.962 31.8595 19.8595 32.9996 19.8355C33.3417 19.814 33.4504 19.2526 33.453 18.9916C33.4557 18.6262 34.0172 18.6301 34.0146 18.9962C34.012 19.3052 33.9432 19.596 33.8219 19.8283C34.8297 19.8679 36.9272 20.5715 37.9801 20.9104C38.3392 21.0259 38.805 21.2511 39.1812 21.0869C39.3889 20.9967 39.535 20.8273 39.6084 20.6682C39.7617 20.3353 40.2728 20.567 40.1195 20.8993C40.0258 21.1025 39.8613 21.3147 39.6346 21.4712C40.8376 21.8502 43.1572 22.7648 44.2227 22.6642C46.0358 22.4935 46.3869 20.4209 44.988 19.5499C44.0615 18.9728 42.6225 18.5652 41.5545 18.2076C38.0353 17.0275 34.5028 15.6579 30.7967 15.2898C26.0102 14.814 19.3301 14.3733 15.2432 16.9191C10.861 19.6485 5.6734 22.6337 0.547556 23.5671C-0.0585448 23.6768 -0.22694 22.7648 0.378506 22.6545C5.3564 21.7483 10.4849 18.7866 14.7441 16.1337C19.0562 13.4478 25.8511 13.8659 30.8878 14.3662C34.6771 14.7427 38.2581 16.1219 41.8553 17.3273C43.0065 17.7129 44.4782 18.1361 45.4872 18.7644C47.6507 20.1119 47.0034 23.3333 44.3104 23.5871C42.9888 23.7117 40.8658 22.8263 39.4989 22.4012C39.8979 22.9451 40.371 23.5364 40.8002 24.0577C41.2785 24.6386 42.2994 25.6414 42.4324 26.43C42.7751 28.4553 39.265 29.9294 36.6165 27.233C36.4618 27.5406 36.2365 27.8451 35.9337 28.1384C35.4272 30.1655 34.0721 33.1378 32.1609 34.2484C31.0679 34.8832 29.4953 34.8131 28.6266 33.8304C27.2833 35.1429 24.5261 37.7119 22.3886 36.7915C22.2641 36.7376 22.1481 36.6786 22.042 36.615L22.0402 36.6145ZM23.8571 32.0559C23.3638 32.3162 22.7183 32.8608 22.3219 33.5001C21.763 34.401 21.6529 35.4629 22.7616 35.9401C24.4541 36.669 27.1353 33.985 28.2342 32.9075C28.1477 32.1948 28.396 31.3926 28.7053 30.7552C27.1701 31.0538 25.2423 31.427 23.8579 32.056L23.8571 32.0559ZM29.9247 30.5195C29.6239 30.931 29.0834 32.0299 29.1502 32.7582C29.2478 33.8169 30.8596 33.9273 31.6853 33.4476C33.0901 32.631 34.1615 30.5014 34.6798 29.0396C33.214 29.8497 31.5563 30.204 29.9247 30.5195ZM23.1986 18.8203C23.0132 18.5035 23.5 18.2244 23.6854 18.5412C24.3813 19.7348 23.9076 20.9765 23.2517 22.0689C23.0636 22.3844 22.5794 22.1007 22.7674 21.7853C23.3054 20.8882 23.7772 19.812 23.1992 18.8202L23.1986 18.8203ZM57.6628 44.3337C57.0232 43.7001 57.0232 42.661 57.6628 42.0274C58.3023 41.3938 59.3512 41.3939 59.9908 42.0274C60.6304 42.6609 60.6304 43.7001 59.9908 44.3337C59.3513 44.9673 58.3024 44.9672 57.6628 44.3337ZM58.3272 43.6755C58.6017 43.9474 59.0525 43.9474 59.3264 43.6755C59.6009 43.4035 59.6009 42.9569 59.3264 42.6856C59.0519 42.4137 58.6011 42.4137 58.3272 42.6856C58.0526 42.9576 58.0526 43.4042 58.3272 43.6755ZM84.4093 42.6824C83.5916 41.8723 83.5916 40.543 84.4093 39.7329C85.227 38.9228 86.569 38.9228 87.3867 39.7329C88.2044 40.543 88.2044 41.8723 87.3867 42.6824C86.569 43.4924 85.227 43.4924 84.4093 42.6824ZM85.0737 42.0242C85.5265 42.4727 86.2702 42.4727 86.7229 42.0242C87.1757 41.5757 87.1757 40.8389 86.7229 40.3904C86.2702 39.9419 85.5265 39.9419 85.0737 40.3904C84.6209 40.8389 84.6209 41.5757 85.0737 42.0242ZM64.7032 48.5248C64.0637 47.8913 64.0637 46.8522 64.7032 46.2186C65.3427 45.585 66.3917 45.5851 67.0313 46.2186C67.6709 46.8521 67.6708 47.8912 67.0313 48.5248C66.3917 49.1584 65.3428 49.1583 64.7032 48.5248ZM65.3676 47.8667C65.6421 48.1386 66.0929 48.1386 66.3668 47.8667C66.6414 47.5947 66.6414 47.1481 66.3668 46.8768C66.0923 46.6048 65.6415 46.6048 65.3676 46.8768C65.093 47.1488 65.093 47.5953 65.3676 47.8667ZM77.27 4.6664C77.9095 5.29991 77.9095 6.33904 77.27 6.97264C76.6305 7.60623 75.5815 7.60615 74.9419 6.97264C74.3023 6.33912 74.3024 5.29999 74.9419 4.6664C75.5814 4.0328 76.6304 4.03288 77.27 4.6664ZM76.6056 5.32457C76.3311 5.0526 75.8802 5.0526 75.6064 5.32457C75.3318 5.59654 75.3318 6.04311 75.6064 6.31443C75.8809 6.5864 76.3317 6.5864 76.6056 6.31443C76.8801 6.04246 76.8801 5.59589 76.6056 5.32457ZM50.8606 6.29886C51.6784 7.10893 51.6784 8.43827 50.8606 9.24833C50.0429 10.0584 48.701 10.0584 47.8832 9.24833C47.0655 8.43827 47.0655 7.10893 47.8832 6.29886C48.701 5.48879 50.0429 5.48879 50.8606 6.29886ZM50.1962 6.95703C49.7435 6.50851 48.9998 6.50851 48.547 6.95703C48.0942 7.40555 48.0942 8.14227 48.547 8.59079C48.9998 9.03931 49.7435 9.03931 50.1962 8.59079C50.649 8.14227 50.649 7.40555 50.1962 6.95703ZM70.2279 0.475167C70.8674 1.10868 70.8674 2.14781 70.2279 2.78141C69.5884 3.415 68.5394 3.41492 67.8998 2.78141C67.2602 2.14789 67.2603 1.10876 67.8998 0.475167C68.5394 -0.15843 69.5883 -0.158347 70.2279 0.475167ZM69.5635 1.13334C69.289 0.861372 68.8382 0.861372 68.5643 1.13334C68.2897 1.40531 68.2897 1.85188 68.5643 2.1232C68.8388 2.39517 69.2896 2.39517 69.5635 2.1232C69.8381 1.85123 69.8381 1.40466 69.5635 1.13334ZM73.2164 18.8784L77.1335 14.3081C76.3531 13.4786 76.1939 12.2388 76.7345 11.2438L69.8374 8.46964C69.3781 9.88207 67.8194 10.6591 66.3922 10.1579L64.9835 12.8217C65.4329 13.0729 65.7848 13.4734 65.9735 13.9492L70.1578 13.1943C70.1388 12.7159 70.321 12.2551 70.663 11.9163C71.3346 11.2509 72.436 11.2509 73.1077 11.9163C73.7793 12.5816 73.7793 13.6727 73.1077 14.338C72.8246 14.6184 72.4682 14.7813 72.0999 14.8261L72.018 18.4643C72.438 18.5046 72.8508 18.6422 73.2178 18.8785L73.2164 18.8784ZM77.5574 14.6742L73.6536 19.2288C73.9523 19.5248 74.1653 19.8727 74.2937 20.2434L76.4029 19.5008C76.2391 18.8205 76.4409 18.1046 76.9422 17.608C77.7317 16.8258 79.0265 16.8258 79.8161 17.608C80.6056 18.3901 80.6056 19.6728 79.8161 20.4549C79.0265 21.2371 77.7317 21.2371 76.9422 20.4549C76.8085 20.3225 76.6971 20.1758 76.6086 20.02L74.4194 20.7912C74.5164 21.6006 74.2366 22.4048 73.6535 22.9826C72.613 24.0133 70.9054 24.0133 69.8642 22.9826C69.6827 22.8028 69.5326 22.6035 69.414 22.3912L66.6711 23.3571C66.8782 24.2477 66.6102 25.1823 65.955 25.8315C65.3692 26.4118 64.5508 26.689 63.731 26.589L62.9166 29.7553C63.2665 29.8838 63.5947 30.0877 63.8759 30.3661C65.0238 31.5033 64.8843 33.3915 63.5993 34.3586L66.6049 38.1733C67.038 38.061 67.4993 38.0578 67.9338 38.1649L68.9501 34.7182C68.7332 34.6209 68.53 34.4839 68.3518 34.3074C67.5623 33.5252 67.5623 32.2426 68.3518 31.4604C69.1099 30.7094 70.3437 30.6744 71.1419 31.3819L73.8074 29.3548C73.1496 28.3117 73.3068 26.9454 74.1868 26.0737C75.2273 25.0429 76.9349 25.0429 77.9761 26.0737C78.1596 26.2554 78.3109 26.4566 78.4295 26.6708L81.3866 24.8436C81.0479 23.502 81.808 22.1142 83.1452 21.6767L80.3245 14.8586C79.4458 15.3084 78.3673 15.2377 77.5574 14.6736L77.5574 14.6742ZM64.4618 12.6107L65.8857 9.91762C65.3333 9.5814 64.9192 9.05563 64.7265 8.44094L57.8505 11.2651C58.1473 11.824 58.2318 12.475 58.091 13.0903L61.814 13.8757C61.9234 13.6258 62.0813 13.3921 62.2871 13.1883C62.8565 12.6243 63.6867 12.4062 64.4612 12.6113L64.4618 12.6107ZM61.6567 14.412L57.908 13.6214C57.7796 13.8953 57.6013 14.1517 57.3733 14.3776C56.5641 15.1792 55.3218 15.3817 54.2983 14.8839L51.8038 21.833C52.0554 21.9602 52.2841 22.1257 52.482 22.3218C53.5225 23.3525 53.5225 25.0447 52.482 26.0755C52.0665 26.487 51.5155 26.7642 50.9009 26.8349L53.7558 33.864C54.8127 32.9832 56.3964 33.052 57.3734 34.0198C58.2782 34.9162 58.4145 36.3434 57.6951 37.3891L64.7219 39.9757C64.931 39.2883 65.4158 38.7126 66.0586 38.3828L63.1166 34.6492C62.1003 35.1192 60.8842 34.9095 60.0881 34.1202C59.0475 33.0895 59.0475 31.3979 60.0881 30.3665C60.6889 29.7713 61.5335 29.496 62.3722 29.6174L63.1834 26.4636C62.6048 26.2649 62.1101 25.8722 61.7864 25.3575L57.8071 27.2685C58.0606 27.9565 57.889 28.7341 57.3641 29.254C56.623 29.9881 55.4076 29.9881 54.6665 29.254C53.9254 28.5199 53.9254 27.3158 54.6665 26.5817C55.4843 25.7716 56.8433 25.8709 57.5371 26.7784L61.5406 24.8558C61.3112 24.2255 61.3322 23.5213 61.5995 22.9053L59.0088 21.4923C58.9242 21.6097 58.8286 21.722 58.7218 21.8272C57.6813 22.8579 55.9737 22.8579 54.9325 21.8272C53.892 20.7964 53.892 19.1049 54.9325 18.0735C55.973 17.0427 57.6806 17.0427 58.7218 18.0735C59.4989 18.8433 59.721 20.0123 59.2859 21.0073L61.8749 22.4197C62.8282 21.0904 64.7828 20.9158 65.9557 22.0777C66.1824 22.3022 66.36 22.5573 66.489 22.8299L69.1959 21.8764C68.9449 21.0553 69.11 20.1563 69.6441 19.4773L65.5527 16.2533C65.5265 16.2825 65.499 16.3111 65.4701 16.339C63.9303 17.8644 61.3172 16.5253 61.6574 14.4111L61.6567 14.412ZM71.4558 18.4688L71.5384 14.8046C70.9604 14.6878 70.4808 14.284 70.2705 13.7394L66.1117 14.4898C66.1674 14.9383 66.0848 15.3946 65.8738 15.7958L70.0353 19.0749C70.4501 18.7283 70.9467 18.5264 71.4559 18.4693L71.4558 18.4688ZM81.5865 25.3777L78.6504 27.1919C78.9302 28.1234 78.674 29.1366 77.9768 29.8272C77.7219 30.0797 77.429 30.2705 77.1158 30.3997L78.2356 33.3809C78.9276 33.1492 79.6988 33.2082 80.3455 33.5464L83.0871 26.6978C82.4344 26.4674 81.8945 25.9916 81.5866 25.3769L81.5865 25.3777ZM74.1548 29.7934L71.507 31.8069C71.7697 32.2171 71.8719 32.7098 71.7979 33.1888L76.7895 34.5422C77.0169 34.1618 77.3406 33.8405 77.7239 33.614L76.5766 30.5586C75.7077 30.7196 74.8153 30.4483 74.1876 29.8265C74.1765 29.8154 74.1652 29.8045 74.1548 29.7934ZM76.5536 35.055L71.6373 33.7217C71.5397 33.9333 71.4021 34.132 71.2265 34.3066C70.7698 34.759 70.127 34.968 69.49 34.8745L68.4639 38.3549C69.129 38.6775 69.6342 39.2617 69.851 39.964L76.7278 37.1365C76.387 36.4991 76.3248 35.739 76.5548 35.0549L76.5536 35.055ZM56.6998 27.2393C56.3236 26.8667 55.7064 26.8667 55.331 27.2393C54.9548 27.6119 54.9548 28.2233 55.331 28.5952C55.7071 28.9678 56.3243 28.9678 56.6998 28.5952C57.0759 28.2227 57.0759 27.6112 56.6998 27.2393ZM70.5621 32.1178C70.1375 31.6972 69.441 31.6972 69.0164 32.1178C68.5918 32.5384 68.5918 33.2284 69.0164 33.649C69.441 34.0696 70.1375 34.0696 70.5621 33.649C70.9867 33.2284 70.9867 32.5384 70.5621 32.1178ZM72.444 12.5732C72.1373 12.2694 71.6341 12.2694 71.3275 12.5732C71.0208 12.8769 71.0208 13.3754 71.3275 13.6792C71.6341 13.983 72.1373 13.983 72.444 13.6792C72.7506 13.3754 72.7506 12.8769 72.444 12.5732ZM79.153 18.2651C78.7284 17.8445 78.0318 17.8445 77.6073 18.2651C77.1827 18.6857 77.1827 19.3757 77.6073 19.7963C78.0318 20.2169 78.7284 20.2169 79.153 19.7963C79.5775 19.3757 79.5775 18.6857 79.153 18.2651ZM63.2123 31.0229C62.5368 30.3537 61.4274 30.3537 60.7512 31.0229C60.0757 31.6921 60.0757 32.7911 60.7512 33.4609C61.4268 34.1301 62.5362 34.1301 63.2123 33.4609C63.8879 32.7917 63.8879 31.6927 63.2123 31.0229ZM58.0576 18.7303C57.3821 18.0611 56.2727 18.0611 55.5965 18.7303C54.921 19.3995 54.921 20.4985 55.5965 21.1683C56.2721 21.8375 57.3815 21.8375 58.0576 21.1683C58.7332 20.4991 58.7332 19.4001 58.0576 18.7303ZM62.9516 13.844C61.744 15.0403 63.5741 16.9 64.8054 15.6803C66.0228 14.4743 64.1691 12.638 62.9516 13.844ZM65.2915 22.7346C64.6159 22.0654 63.5065 22.0654 62.8304 22.7346C62.2459 23.3136 62.1666 24.2139 62.5938 24.8799C63.1842 25.8016 64.5052 25.9515 65.2914 25.1726C65.967 24.5034 65.967 23.4045 65.2915 22.7346ZM77.3125 26.7305C76.6369 26.0613 75.5276 26.0613 74.8514 26.7305C74.1758 27.3997 74.1758 28.4987 74.8514 29.1685C75.5269 29.8377 76.6363 29.8377 77.3125 29.1685C77.988 28.4993 77.988 27.4003 77.3125 26.7305ZM72.9898 19.8859C72.3142 19.2167 71.2049 19.2167 70.5287 19.8859C69.8531 20.5551 69.8531 21.654 70.5287 22.3239C71.2042 22.9931 72.3136 22.9931 72.9898 22.3239C73.6653 21.6547 73.6653 20.5557 72.9898 19.8859ZM56.7085 34.6754C56.0329 34.0062 54.9235 34.0062 54.2474 34.6754C53.5718 35.3447 53.5718 36.4436 54.2474 37.1135C54.9229 37.7827 56.0323 37.7827 56.7085 37.1135C57.384 36.4442 57.384 35.3453 56.7085 34.6754ZM56.9607 38.106C55.9065 38.8012 54.4807 38.6603 53.5836 37.771C52.7665 36.9616 52.5667 35.7174 53.085 34.6989L49.8566 26.7508C49.4104 26.6255 49.0113 26.3893 48.6922 26.0732C47.6517 25.0424 47.6517 23.3502 48.6922 22.3194C49.2761 21.7417 50.0873 21.4646 50.9049 21.5606L53.5108 14.3006C52.5384 13.2608 52.5718 11.6245 53.5835 10.6215C54.5775 9.63682 56.1934 9.58489 57.2477 10.5053L64.6132 7.47989C64.8288 4.16501 69.7922 4.24162 69.9626 7.51365L77.3491 10.4852C78.4047 9.58492 80.0048 9.64529 80.9903 10.6215C81.9902 11.612 82.0361 13.2244 81.0932 14.2674L84.104 21.5444C85.5357 21.6054 86.6659 22.7757 86.6659 24.1959C86.6659 25.6441 85.493 26.8254 84.0318 26.8495L81.1108 34.1446C82.036 35.189 81.9816 36.7869 80.9896 37.7697C79.9982 38.7518 78.3857 38.8063 77.3313 37.891L69.9592 40.9223C69.9134 41.5818 69.6244 42.175 69.1808 42.6152C68.1403 43.646 66.432 43.646 65.3915 42.6152C64.9473 42.1751 64.6583 41.5818 64.6131 40.9218L56.9599 38.1047L56.9607 38.106ZM77.8647 34.6754C77.1891 35.3447 77.1891 36.4436 77.8647 37.1135C78.5402 37.7827 79.6496 37.7827 80.3258 37.1135C81.0013 36.4442 81.0013 35.3453 80.3258 34.6754C79.6502 34.0062 78.5409 34.0062 77.8647 34.6754ZM54.2484 11.2807C53.5728 11.9499 53.5728 13.0489 54.2484 13.7187C54.9239 14.3879 56.0333 14.3879 56.7095 13.7187C57.385 13.0495 57.385 11.9505 56.7095 11.2807C56.0339 10.6115 54.9245 10.6115 54.2484 11.2807ZM83.9873 25.9209C84.9485 25.9209 85.7276 25.1491 85.7276 24.1969C85.7276 23.2447 84.9485 22.4729 83.9873 22.4729C81.6704 22.4729 81.7227 25.9202 83.9873 25.9202V25.9209ZM49.357 22.9786C48.6815 23.6478 48.6815 24.7468 49.357 25.4166C50.0306 26.0838 51.1359 26.0916 51.8181 25.4166C52.4937 24.7474 52.4937 23.6484 51.8181 22.9786C51.1426 22.3094 50.0332 22.3094 49.357 22.9786ZM65.5474 40.7402C65.5474 41.216 65.742 41.647 66.0572 41.9592C66.7328 42.6284 67.8421 42.6284 68.5183 41.9592C68.8328 41.647 69.0281 41.2166 69.0281 40.7402C69.0281 38.4885 65.5481 38.4548 65.5481 40.7402H65.5474ZM65.5474 7.65459C65.5474 9.90633 69.0274 9.94006 69.0274 7.65459C69.0274 5.40285 65.5474 5.36912 65.5474 7.65459Z" fill="#596A73"/>
</svg>
