<svg width="60" height="48" viewBox="0 0 60 48" fill="none" xmlns="http://www.w3.org/2000/svg">
<path d="M56.7745 20.571C55.3356 20.6281 54.2495 22.0571 53.4587 23.0959L53.0872 23.5724C50.8196 26.278 48.5425 26.9647 45.2168 25.945H45.2174C43.96 25.5277 42.9278 24.6158 42.3589 23.4201C41.79 22.4259 41.0323 21.552 40.1292 20.8474C39.6095 20.434 38.9727 20.1941 38.3095 20.1615C38.0118 20.1576 37.7173 20.226 37.4522 20.3616C36.3755 20.9139 36.2519 22.372 36.5948 23.5723C37.5678 27.2284 40.3718 30.1155 43.998 31.1949C44.9916 31.466 46.0164 31.6103 47.0466 31.6235C47.1848 31.6521 47.3277 31.6521 47.466 31.6235C49.721 31.5079 51.8997 30.7728 53.7639 29.4988C53.8191 29.4589 53.8696 29.4144 53.9161 29.3652C54.3182 29.0967 54.703 28.8043 55.0692 28.4886C57.1562 26.6781 60.3569 23.353 58.4899 21.352V21.3527C58.0639 20.8482 57.4344 20.561 56.7745 20.571Z" fill="#596A73"/>
<path d="M25.5044 23.7441C25.6233 23.6138 25.6911 23.4444 25.6951 23.2676C25.7044 23.2044 25.7044 23.1406 25.6951 23.0775C25.842 22.5817 25.8287 22.0527 25.6579 21.5655C25.4864 21.0783 25.1661 20.657 24.7427 20.3619C24.4736 20.2276 24.1758 20.1592 23.8754 20.1618C23.2148 20.195 22.5814 20.435 22.0649 20.8477C21.1417 21.5449 20.3675 22.4195 19.7879 23.4204C19.219 24.616 18.1862 25.528 16.9293 25.9453C13.6043 26.9741 11.3266 26.2789 9.05892 23.5727L8.68739 23.0962C7.89651 22.0574 6.78198 20.6284 5.37167 20.5712C4.71171 20.5447 4.07434 20.8178 3.63775 21.3143C1.73234 23.3155 4.97163 26.6406 7.05846 28.4509C7.42333 28.7639 7.80482 29.0564 8.2016 29.3275C8.24813 29.3767 8.2993 29.4219 8.35447 29.4611C10.2214 30.7372 12.4033 31.4756 14.6616 31.5952C14.7972 31.6191 14.9361 31.6191 15.071 31.5952C16.0992 31.5945 17.1228 31.4503 18.1109 31.1665C21.6805 30.1164 24.4686 27.3184 25.5041 23.7441L25.5044 23.7441Z" fill="#596A73"/>
<path d="M19.6819 4.4211C20.0341 3.85152 20.1424 3.16432 19.9829 2.51364C19.8234 1.86365 19.4094 1.3047 18.8338 0.962429C18.3466 0.636097 17.7458 0.527103 17.1756 0.660698C16.6047 0.794287 16.1149 1.15916 15.8231 1.6676C14.4892 3.79233 9.64882 10.6332 2.63642 10.0617C2.05488 9.99991 1.47067 10.1561 0.997476 10.4997C0.792115 10.6546 0.612004 10.8413 0.463794 11.0527C-0.0499496 11.7837 -0.143665 12.7308 0.216559 13.549C0.556843 14.2668 1.262 14.742 2.05562 14.7872C9.89678 15.473 16.2997 9.88026 19.6823 4.42109L19.6819 4.4211Z" fill="#596A73"/>
<path d="M58.966 11.3391C58.5274 10.9516 57.9604 10.7409 57.3749 10.7482C50.3053 10.7482 46.1037 3.44998 44.9884 1.22027H44.9891C44.6661 0.519762 43.9862 0.0518716 43.2165 0.000692973C42.3313 -0.0199095 41.4978 0.420059 41.0152 1.1631C40.5234 1.89485 40.4689 2.83727 40.8723 3.62148C43.7309 9.33859 49.6381 15.4935 57.527 15.5122H57.5277C58.3099 15.5208 59.037 15.1101 59.4331 14.4355C59.8711 13.6612 59.8711 12.7135 59.4331 11.9392C59.3068 11.7179 59.1494 11.5158 58.966 11.3391Z" fill="#596A73"/>
<path d="M36.9376 42.8272C32.4881 43.3037 28.0484 42.6557 23.5988 42.4364C20.3781 42.2842 20.3881 47.2861 23.5988 47.4382C28.0484 47.6576 32.4881 48.3056 36.9376 47.829C40.1006 47.4861 40.1383 42.4842 36.9376 42.8272Z" fill="#596A73"/>
</svg>
