<svg width="62" height="48" viewBox="0 0 62 48" fill="none" xmlns="http://www.w3.org/2000/svg">
<path d="M12.3656 33.0039C11.8024 33.0039 11.2801 32.6793 11.0354 32.156C9.96022 29.8499 8.7381 27.2939 8.24553 26.3514C4.36038 24.7801 0.882862 20.5345 0.208096 16.44C-0.388905 12.8135 0.308451 9.2151 2.17368 6.31051C4.27898 3.03262 7.665 0.926795 11.9663 0.219654C12.85 0.0737294 13.7399 0 14.6109 0C21.7466 0 27.7379 4.93322 28.8572 11.7285C29.4901 15.5844 28.1502 20.9507 24.4724 23.7166C24.3629 24.8389 24.1714 27.5223 24.0193 29.9466C23.9768 30.6291 23.4679 31.1913 22.7925 31.3039L12.6051 32.9843C12.5258 32.9971 12.4454 33.0037 12.3655 33.0037L12.3656 33.0039ZM14.6112 2.93691C13.899 2.93691 13.1705 2.99733 12.4429 3.11765C8.98478 3.68495 6.28807 5.33817 4.64559 7.89777C3.17311 10.19 2.62732 13.0542 3.10653 15.9629C3.63184 19.1537 6.65678 22.7269 9.71342 23.7653C10.4087 24.0059 10.485 24.0325 13.2274 29.9067L21.1635 28.598C21.5726 22.1064 21.611 22.0828 22.3385 21.6286C25.2627 19.7634 26.4811 15.3714 25.9615 12.2066C25.2207 7.71277 20.991 2.93672 14.6114 2.93672L14.6112 2.93691Z" fill="#596A73"/>
<path d="M14.5166 21.8312C10.5081 21.8312 7.13555 19.0274 6.49644 15.1644C5.78372 10.8139 8.83269 6.67946 13.2913 5.94518C13.7454 5.87043 14.2083 5.83203 14.6645 5.83203C18.6761 5.83203 22.0466 8.63583 22.679 12.4999C23.0282 14.6124 22.5085 16.7383 21.2142 18.4842C19.9311 20.2142 18.0413 21.3632 15.8914 21.7175C15.4357 21.7933 14.9739 21.8312 14.5167 21.8312L14.5166 21.8312ZM14.665 8.76838C14.3676 8.76838 14.067 8.79347 13.769 8.84262C10.9064 9.3152 8.94291 11.9371 9.39341 14.6882C9.79687 17.1254 11.9514 18.8954 14.516 18.8954C14.814 18.8954 15.1151 18.8703 15.4136 18.8207C16.8062 18.5918 18.0278 17.8509 18.8548 16.7364C19.6709 15.6345 20.0012 14.2992 19.782 12.9761C19.3832 10.5379 17.2302 8.76838 14.665 8.76838Z" fill="#596A73"/>
<path d="M38.3665 45.6761C37.9666 45.6761 37.5714 45.5122 37.2852 45.2019L30.2942 37.6069C29.8493 37.123 29.7796 36.4011 30.1263 35.8415C31.462 33.6766 32.9275 31.2509 33.4431 30.3246C32.6326 26.1834 34.2731 20.9615 37.3165 18.1645C40.0577 15.6392 43.4968 14.2476 46.9974 14.2476C50.84 14.2476 54.4117 15.9183 57.324 19.081C60.1421 22.1413 61.5845 26.0018 61.3852 29.9529C61.2009 33.625 59.5963 37.1133 56.984 39.5207C54.6754 41.642 51.1421 43.0111 47.9794 43.0111C46.7624 43.0111 45.6145 42.8185 44.5567 42.4391C43.5547 42.9686 41.2071 44.2793 39.0911 45.4831C38.8647 45.6136 38.6143 45.6761 38.3665 45.6761ZM33.2085 36.437L38.6558 42.3547C43.9167 39.3701 44.0559 39.3701 44.5076 39.3701C44.6975 39.3701 44.889 39.4075 45.0646 39.4787C45.9637 39.8816 46.9284 40.0746 47.9815 40.0746C50.7868 40.0746 53.5275 38.7117 54.998 37.3605C60.0659 32.69 59.0316 25.2669 55.166 21.0694C52.8246 18.5272 49.9993 17.1837 46.9985 17.1837C44.2766 17.1837 41.473 18.3285 39.3051 20.3243C36.9284 22.5101 35.6018 27.0024 36.4087 30.1349C36.5986 30.8272 36.6196 30.9045 33.2087 36.4372L33.2085 36.437Z" fill="#596A73"/>
<path d="M47.5994 36.8574C45.3062 36.8574 43.0876 35.8775 41.5107 34.1678C38.4484 30.8392 38.5938 25.7039 41.8343 22.7204C43.2847 21.383 45.1823 20.6463 47.1771 20.6463C49.4673 20.6463 51.6863 21.6252 53.2634 23.3312C56.3302 26.6612 56.1875 31.7983 52.9485 34.7848C51.4944 36.1216 49.5948 36.8573 47.5995 36.8573L47.5994 36.8574ZM47.1786 23.581C45.9226 23.581 44.7322 24.0418 43.8249 24.8789C41.7743 26.7667 41.7057 30.0415 43.6713 32.1782C44.6923 33.2851 46.1244 33.9205 47.6005 33.9205C48.858 33.9205 50.052 33.4597 50.9628 32.6226C53.0098 30.7349 53.0758 27.4589 51.1072 25.3209C50.0857 24.216 48.6531 23.5811 47.1785 23.5811L47.1786 23.581Z" fill="#596A73"/>
<path d="M18.2809 40.462C16.0655 40.462 14.1419 38.7067 13.8054 36.3807C13.4362 33.8038 15.111 31.424 17.5394 31.0749C19.9925 30.7154 22.2473 32.5781 22.6145 35.1151C22.9846 37.6863 21.3114 40.0647 18.8866 40.4184C18.6823 40.4481 18.4801 40.462 18.2809 40.462ZM18.1416 33.9682C18.0802 33.9682 18.0193 33.9728 17.9573 33.9815C17.1309 34.1003 16.5713 34.9891 16.7126 35.9634C16.8509 36.9235 17.6199 37.629 18.4663 37.5122C19.2896 37.3924 19.8482 36.5046 19.7089 35.5338C19.5794 34.6419 18.9055 33.9682 18.1416 33.9682Z" fill="#596A73"/>
<path d="M31.4106 48C30.4337 48 29.5167 47.6872 28.7593 47.0958C26.8316 45.5793 26.5684 42.6839 28.168 40.6388C29.0921 39.4628 30.5002 38.7619 31.9363 38.7619C32.9117 38.7619 33.8267 39.0737 34.5819 39.664C36.5096 41.1791 36.7728 44.0754 35.1748 46.1224C34.2542 47.298 32.8478 48 31.4106 48ZM31.9364 41.6977C31.3942 41.6977 30.8494 41.9798 30.4793 42.4493C29.8761 43.2209 29.9155 44.269 30.5709 44.784C30.8658 45.0144 31.1909 45.0636 31.4111 45.0636C31.9523 45.0636 32.4945 44.783 32.8616 44.314C33.4662 43.5388 33.4268 42.4892 32.7715 41.9741C32.4796 41.7457 32.1555 41.6977 31.9364 41.6977Z" fill="#596A73"/>
<path d="M23.0221 47.6789C22.3708 47.6789 21.7308 47.5504 21.1194 47.2979C18.7206 46.3057 17.5277 43.6529 18.4616 41.3838C19.1416 39.7489 20.7759 38.6973 22.6289 38.6973C23.2806 38.6973 23.9201 38.8263 24.5305 39.0798C25.6733 39.5539 26.5811 40.4155 27.088 41.5052C27.6164 42.6398 27.6502 43.8814 27.1842 45.0011C26.5099 46.6278 24.8756 47.6789 23.0221 47.6789ZM22.6283 41.6342C21.9653 41.6342 21.3944 41.9767 21.1747 42.5071C20.8583 43.2757 21.336 44.21 22.2418 44.5844C23.1306 44.953 24.1654 44.612 24.4716 43.8752C24.6185 43.5235 24.6016 43.1231 24.426 42.7447C24.2284 42.3228 23.8659 41.9834 23.403 41.7914C23.1521 41.6869 22.8915 41.6342 22.6283 41.6342Z" fill="#596A73"/>
</svg>
