<svg width="109" height="109" viewBox="0 0 109 109" fill="none" xmlns="http://www.w3.org/2000/svg">
<path d="M21.9853 38.5642C23.1952 43.1095 26.7159 46.3577 30.7053 46.3577C34.6947 46.3577 38.1936 43.0877 39.4253 38.5642C39.8956 38.2151 40.2878 37.7717 40.5769 37.2623C40.866 36.7528 41.0455 36.1887 41.104 35.6059C41.1625 35.0231 41.0986 34.4345 40.9165 33.8778C40.7345 33.3211 40.4381 32.8086 40.0466 32.373C40.2101 32.2531 40.3627 32.155 40.5153 32.0242C40.7781 31.7928 40.9418 31.469 40.9722 31.1201C41.0027 30.7712 40.8976 30.4239 40.6788 30.1505C40.46 29.877 40.1443 29.6982 39.7973 29.6514C39.4502 29.6045 39.0984 29.6931 38.8149 29.8987L38.7059 29.975C38.0141 28.4293 36.8985 27.1112 35.4883 26.1737C34.078 25.2361 32.431 24.7174 30.738 24.6776C26.7268 24.6776 23.2933 27.577 22.0725 31.7735C21.5446 32.1683 21.1161 32.6808 20.8209 33.2702C20.5258 33.8596 20.3721 34.5097 20.3721 35.1689C20.3721 35.828 20.5258 36.4781 20.8209 37.0675C21.1161 37.6569 21.5446 38.1694 22.0725 38.5642H21.9853ZM24.2634 33.79H24.3615C24.8956 30.0404 27.5116 27.4135 30.6726 27.4135C31.8742 27.4512 33.0392 27.8355 34.0275 28.5201C35.0157 29.2047 35.7849 30.1604 36.2425 31.2721C34.614 31.7844 32.8498 31.6397 31.3266 30.8688C31.017 30.7056 30.6565 30.6678 30.3198 30.7631C29.9831 30.8585 29.696 31.0798 29.518 31.3811C29.34 31.6824 29.2848 32.0407 29.3638 32.3816C29.4428 32.7225 29.6499 33.02 29.9423 33.2123C31.2813 33.9353 32.7806 34.3101 34.3023 34.3023C35.3082 34.2928 36.3058 34.1198 37.2562 33.79C37.5715 33.852 37.8543 34.0243 38.0541 34.276C38.2538 34.5277 38.3574 34.8423 38.3462 35.1634C38.358 35.3422 38.3338 35.5215 38.2751 35.6907C38.2164 35.86 38.1244 36.0158 38.0045 36.1489C37.8846 36.282 37.7393 36.3897 37.577 36.4657C37.4148 36.5417 37.239 36.5844 37.06 36.5913H36.9619C36.4605 40.4608 33.79 43.6 30.6726 43.6C27.5552 43.6 24.8847 40.4281 24.3615 36.5477H24.2634C23.9259 36.4962 23.6181 36.3255 23.3957 36.0666C23.1732 35.8076 23.0509 35.4775 23.0509 35.1362C23.0509 34.7948 23.1732 34.4647 23.3957 34.2058C23.6181 33.9468 23.9259 33.7761 24.2634 33.7246V33.79Z" fill="#596A73"/>
<path d="M10.7258 54.6199H50.1402C50.5015 54.6199 50.8481 54.4763 51.1036 54.2208C51.3591 53.9653 51.5027 53.6187 51.5027 53.2574V21.0588C51.5027 20.6974 51.3591 20.3509 51.1036 20.0954C50.8481 19.8398 50.5015 19.6963 50.1402 19.6963H10.7258C10.3644 19.6963 10.0179 19.8398 9.76235 20.0954C9.50683 20.3509 9.36328 20.6974 9.36328 21.0588V53.2574C9.36328 53.6187 9.50683 53.9653 9.76235 54.2208C10.0179 54.4763 10.3644 54.6199 10.7258 54.6199ZM19.3259 51.884C19.2658 51.5813 19.2708 51.2693 19.3403 50.9687C19.4098 50.668 19.5424 50.3856 19.7292 50.14C20.4159 49.268 21.9092 48.7666 24.0892 48.7012C25.8178 50.2855 28.0773 51.1644 30.4221 51.1646C32.7641 51.167 35.0211 50.2875 36.7441 48.7012C38.9241 48.7666 40.4392 49.268 41.1041 50.14C41.2879 50.3914 41.4185 50.6777 41.4878 50.9813C41.5572 51.2849 41.5638 51.5995 41.5074 51.9058H19.3259V51.884ZM12.0883 22.454H48.7668V51.884H44.276C44.4062 50.6641 44.0671 49.4404 43.3277 48.4614C42.0306 46.7719 39.6435 45.9108 36.21 45.9108C36.0289 45.9119 35.8498 45.9491 35.6832 46.0202C35.5167 46.0913 35.3659 46.1949 35.2399 46.325C34.6199 46.976 33.8741 47.4942 33.0479 47.8484C32.2216 48.2025 31.332 48.3851 30.433 48.3851C29.534 48.3851 28.6444 48.2025 27.8181 47.8484C26.9918 47.4942 26.2461 46.976 25.6261 46.325C25.498 46.1946 25.3454 46.0909 25.177 46.0198C25.0086 45.9487 24.8278 45.9116 24.6451 45.9108C21.2225 45.9108 18.8245 46.7719 17.5383 48.4614C16.8019 49.4422 16.4597 50.6633 16.5791 51.884H12.0883V22.454Z" fill="#596A73"/>
<path d="M95.4296 19.6963H56.0261C55.6647 19.6963 55.3182 19.8398 55.0626 20.0954C54.8071 20.3509 54.6636 20.6974 54.6636 21.0588V53.2574C54.6636 53.6187 54.8071 53.9653 55.0626 54.2208C55.3182 54.4763 55.6647 54.6199 56.0261 54.6199H95.4296C95.7909 54.6199 96.1375 54.4763 96.393 54.2208C96.6485 53.9653 96.7921 53.6187 96.7921 53.2574V21.0588C96.7921 20.6974 96.6485 20.3509 96.393 20.0954C96.1375 19.8398 95.7909 19.6963 95.4296 19.6963ZM64.6262 51.884C64.5687 51.5819 64.5738 51.2712 64.6413 50.9713C64.7088 50.6713 64.8372 50.3883 65.0186 50.14C65.7162 49.268 67.1986 48.7666 69.3786 48.7012C71.1055 50.2844 73.3632 51.1628 75.706 51.1628C78.0489 51.1628 80.3066 50.2844 82.0335 48.7012C84.2135 48.7666 85.7177 49.268 86.3935 50.14C86.5815 50.3891 86.7138 50.6756 86.7815 50.9803C86.8492 51.2849 86.8507 51.6005 86.7859 51.9058H64.6262V51.884ZM65.7925 44.0469C66.0985 42.6417 66.8659 41.3793 67.9725 40.4608C69.553 43.9815 72.605 46.3577 75.9949 46.3577C79.3848 46.3577 82.4368 43.9815 84.0064 40.4608C85.1149 41.3776 85.8827 42.6407 86.1864 44.0469C86.2712 44.9064 86.0126 45.7645 85.467 46.434C84.195 46.0713 82.8764 45.8987 81.5539 45.9217C81.3711 45.9226 81.1903 45.9596 81.022 46.0307C80.8536 46.1018 80.7009 46.2055 80.5729 46.3359C79.9538 46.9866 79.209 47.5046 78.3836 47.8586C77.5582 48.2126 76.6695 48.3952 75.7714 48.3952C74.8733 48.3952 73.9846 48.2126 73.1592 47.8586C72.3338 47.5046 71.589 46.9866 70.97 46.3359C70.8419 46.2055 70.6893 46.1018 70.5209 46.0307C70.3525 45.9596 70.1717 45.9226 69.989 45.9217C68.8036 45.9047 67.6208 46.0365 66.4683 46.3141C65.9679 45.6692 65.7269 44.8605 65.7925 44.0469ZM71.3079 34.3459C73.0354 34.3219 74.7377 33.9279 76.3001 33.1905C76.4797 33.1305 76.6448 33.0337 76.7849 32.9064C76.9251 32.779 77.0371 32.6238 77.1139 32.4507C77.1907 32.2776 77.2305 32.0904 77.2309 31.901C77.2313 31.7117 77.1923 31.5243 77.1162 31.3509C77.0401 31.1775 76.9288 31.0218 76.7892 30.8939C76.6496 30.7659 76.4849 30.6684 76.3055 30.6077C76.1262 30.5469 75.9361 30.5242 75.7475 30.541C75.5589 30.5578 75.3759 30.6138 75.2101 30.7053C73.7017 31.4509 72.0069 31.7353 70.3378 31.5228C70.766 30.3504 71.5339 29.3323 72.5435 28.5984C73.5531 27.8645 74.7585 27.4482 76.0058 27.4026C79.1559 27.4026 81.7828 30.0295 82.3169 33.7791H82.415C82.7524 33.8306 83.0603 34.0013 83.2827 34.2603C83.5051 34.5192 83.6274 34.8493 83.6274 35.1906C83.6274 35.532 83.5051 35.8621 83.2827 36.121C83.0603 36.38 82.7524 36.5507 82.415 36.6022H82.3169C81.7501 40.4608 79.1341 43.6 75.9731 43.6C72.8121 43.6 70.1743 40.4281 69.662 36.5477H69.5639C69.3891 36.538 69.2181 36.4938 69.0604 36.4178C68.9028 36.3418 68.7617 36.2355 68.6452 36.1048C68.5288 35.9742 68.4393 35.8219 68.3818 35.6566C68.3243 35.4913 68.3001 35.3163 68.3104 35.1416C68.3099 34.9119 68.364 34.6854 68.4682 34.4807C68.5725 34.2761 68.7238 34.0991 68.9099 33.9644C69.6864 34.2074 70.4942 34.3359 71.3079 34.3459ZM94.0671 51.8949H89.5763C89.7011 50.6737 89.3584 49.4507 88.6171 48.4723C88.3948 48.1881 88.1427 47.9287 87.865 47.6984C88.6592 46.5369 89.0111 45.1294 88.8569 43.7308C88.5517 41.1039 86.5243 39.0111 85.3035 37.9756C85.9942 37.2091 86.3818 36.217 86.3935 35.1852C86.3988 34.5205 86.2452 33.8641 85.9457 33.2707C85.6461 32.6773 85.2092 32.164 84.6713 31.7735C83.4614 27.577 80.0279 24.6776 76.0167 24.6776C74.2361 24.7261 72.5095 25.2992 71.0533 26.3249C69.5971 27.3507 68.4761 28.7835 67.8308 30.4437C67.6932 30.3393 67.5655 30.2226 67.4493 30.0949C67.3365 29.9571 67.1975 29.8429 67.0405 29.759C66.8834 29.675 66.7113 29.6229 66.534 29.6057C66.3568 29.5885 66.1779 29.6065 66.0076 29.6586C65.8373 29.7108 65.679 29.7961 65.5418 29.9096C65.2636 30.1395 65.0871 30.4696 65.0504 30.8286C65.0136 31.1876 65.1197 31.5466 65.3456 31.828C65.6743 32.1786 66.0397 32.4928 66.4356 32.7654C65.9364 33.4733 65.6697 34.319 65.6726 35.1852C65.6843 36.217 66.0718 37.2091 66.7626 37.9756C65.5527 39.0111 63.4926 41.1039 63.2201 43.7308C63.0698 45.0242 63.3618 46.3304 64.0485 47.4368C63.3417 47.9303 62.78 48.604 62.4215 49.388C62.0631 50.1719 61.9211 51.0375 62.0102 51.8949H57.3886V22.4649H94.0671V51.8949Z" fill="#596A73"/>
<path d="M67.2747 76.3001C68.4846 80.8454 72.0053 84.0936 75.9947 84.0936C79.9841 84.0936 83.4721 80.8236 84.7147 76.3001C85.2445 75.9066 85.6749 75.3946 85.9714 74.805C86.268 74.2154 86.4224 73.5647 86.4224 72.9047C86.4224 72.2448 86.268 71.594 85.9714 71.0044C85.6749 70.4148 85.2445 69.9028 84.7147 69.5094C83.5048 65.3129 80.0713 62.4135 76.0601 62.4135C72.0489 62.4135 68.6045 65.3129 67.3401 69.5094C66.8102 69.9028 66.3798 70.4148 66.0833 71.0044C65.7868 71.594 65.6323 72.2448 65.6323 72.9047C65.6323 73.5647 65.7868 74.2154 66.0833 74.805C66.3798 75.3946 66.8102 75.9066 67.3401 76.3001H67.2747ZM81.5319 68.9644C80.3312 68.8922 79.1721 68.4978 78.1765 67.8226C77.181 67.1475 76.3859 66.2164 75.8748 65.1276H75.9729C77.1701 65.1655 78.3311 65.5475 79.3169 66.228C80.3028 66.9084 81.0718 67.8584 81.5319 68.9644ZM69.5419 71.4823H69.64C69.7596 70.3305 70.1447 69.2221 70.7651 68.2443C71.3854 67.2665 72.2241 66.4459 73.2152 65.847C73.9135 67.5866 75.118 69.0766 76.6726 70.1241C78.2273 71.1716 80.0606 71.7282 81.9352 71.7221C82.1567 71.7146 82.3733 71.6548 82.5674 71.5477C82.8477 71.6395 83.0906 71.8199 83.2597 72.0617C83.4287 72.3034 83.5147 72.5935 83.5048 72.8884C83.5257 73.2394 83.4067 73.5844 83.1738 73.848C82.9409 74.1115 82.6131 74.272 82.2622 74.2945H82.1641C81.6409 78.164 79.014 81.3359 75.853 81.3359C72.692 81.3359 70.0542 78.164 69.5419 74.2945H69.4438C69.0908 74.2634 68.7623 74.1013 68.523 73.84C68.2837 73.5787 68.1509 73.2372 68.1509 72.8829C68.1509 72.5286 68.2837 72.1871 68.523 71.9258C68.7623 71.6645 69.0908 71.5024 69.4438 71.4714L69.5419 71.4823Z" fill="#596A73"/>
<path d="M51.4918 90.9714V58.7837C51.4933 58.6053 51.4594 58.4283 51.3921 58.2631C51.3248 58.0979 51.2255 57.9476 51.0998 57.8209C50.9742 57.6942 50.8247 57.5937 50.66 57.5251C50.4953 57.4565 50.3186 57.4212 50.1402 57.4212H10.7258C10.5465 57.4197 10.3687 57.454 10.2027 57.5219C10.0367 57.5899 9.88597 57.6902 9.75916 57.817C9.63235 57.9438 9.53204 58.0946 9.46408 58.2606C9.39612 58.4265 9.36187 58.6044 9.36333 58.7837V90.9714C9.36333 91.3327 9.50687 91.6793 9.76239 91.9348C10.0179 92.1903 10.3645 92.3339 10.7258 92.3339H50.1402C50.4997 92.331 50.8435 92.1862 51.0966 91.931C51.3498 91.6758 51.4918 91.3309 51.4918 90.9714ZM19.3259 89.5762C19.2644 89.2767 19.2666 88.9676 19.3323 88.6691C19.3981 88.3705 19.5259 88.0891 19.7074 87.8431C20.3832 86.9493 21.8874 86.437 24.0674 86.3716C25.796 87.9559 28.0556 88.8348 30.4003 88.835C32.7423 88.8374 34.9994 87.9579 36.7223 86.3716C38.9023 86.437 40.4174 86.9384 41.0823 87.8104C41.2661 88.0618 41.3967 88.3481 41.4661 88.6517C41.5354 88.9553 41.5421 89.2699 41.4856 89.5762H19.3259ZM21.4514 83.93C21.0944 83.6487 20.8093 83.2865 20.6198 82.8734C20.4303 82.4602 20.3417 82.0079 20.3614 81.5538C20.7317 80.2211 21.5619 79.0627 22.7049 78.2838C24.2854 81.7718 27.3265 84.1153 30.6837 84.1153C34.0409 84.1153 36.9839 81.8481 38.5862 78.4582C39.6577 79.2174 40.4291 80.3282 40.7662 81.5974C40.7859 82.0515 40.6974 82.5038 40.5079 82.917C40.3183 83.3301 40.0333 83.6923 39.6762 83.9736C38.5705 83.7295 37.4404 83.6125 36.3081 83.6248C36.127 83.6259 35.9479 83.6631 35.7814 83.7342C35.6148 83.8053 35.4641 83.9089 35.338 84.039C34.718 84.69 33.9723 85.2082 33.146 85.5624C32.3197 85.9165 31.4301 86.0991 30.5311 86.0991C29.6321 86.0991 28.7425 85.9165 27.9162 85.5624C27.09 85.2082 26.3442 84.69 25.7242 84.039C25.5961 83.9086 25.4435 83.8049 25.2751 83.7338C25.1068 83.6627 24.926 83.6256 24.7432 83.6248C23.674 83.6146 22.6068 83.7206 21.5604 83.9409C21.5604 83.9409 21.4623 83.93 21.4514 83.93ZM37.0602 74.3053H36.9621C36.4389 78.1748 33.812 81.3467 30.651 81.3467C27.49 81.3467 24.8631 78.1748 24.3399 74.3053H24.2418C23.8909 74.2828 23.5631 74.1223 23.3302 73.8588C23.0973 73.5953 22.9783 73.2502 22.9992 72.8992C22.9915 72.6399 23.0556 72.3836 23.1845 72.1585C23.3134 71.9335 23.502 71.7484 23.7295 71.6239C24.4053 71.7497 25.0914 71.8117 25.7787 71.8092C27.1073 71.8539 28.4284 71.5943 29.6413 71.0503C30.8541 70.5062 31.9265 69.692 32.7765 68.67C32.8889 68.5304 32.9727 68.3701 33.0231 68.1982C33.0735 68.0262 33.0895 67.846 33.0703 67.6679C33.0511 67.4898 32.9969 67.3171 32.911 67.1599C32.8251 67.0027 32.709 66.864 32.5694 66.7516C32.4299 66.6392 32.2695 66.5554 32.0976 66.505C31.9257 66.4546 31.7455 66.4386 31.5673 66.4578C31.3892 66.4771 31.2166 66.5312 31.0594 66.6171C30.9021 66.7031 30.7634 66.8191 30.651 66.9587C29.967 67.7426 29.0989 68.3442 28.1248 68.7095C27.1507 69.0749 26.101 69.1923 25.0702 69.0515C25.5176 67.9222 26.2852 66.9482 27.2786 66.2492C28.272 65.5501 29.4479 65.1565 30.6619 65.1166C33.8229 65.1166 36.4498 67.7435 36.973 71.4931H37.0602C37.4132 71.5241 37.7417 71.6863 37.981 71.9476C38.2203 72.2089 38.3531 72.5503 38.3531 72.9046C38.3531 73.259 38.2203 73.6004 37.981 73.8617C37.7417 74.123 37.4132 74.2851 37.0602 74.3162V74.3053ZM48.745 89.5653H44.276C44.4062 88.3454 44.0671 87.1217 43.3277 86.1427C43.0202 85.7275 42.6529 85.3602 42.2377 85.0527C42.6886 84.5215 43.0289 83.9056 43.2385 83.2411C43.4481 82.5766 43.5229 81.877 43.4585 81.1832C43.1751 78.698 41.0932 76.8232 39.8397 75.8313C40.2735 75.4015 40.609 74.8828 40.8232 74.311C41.0374 73.7392 41.1253 73.1278 41.0808 72.5188C41.0362 71.9098 40.8604 71.3177 40.5652 70.7831C40.2701 70.2485 39.8627 69.7842 39.371 69.4221C38.1502 65.2256 34.7167 62.3262 30.651 62.3262C26.5853 62.3262 23.2063 65.2256 21.9855 69.4221C21.4515 69.8156 21.0182 70.3298 20.7207 70.9227C20.4233 71.5156 20.2703 72.1705 20.2742 72.8338C20.2546 73.8974 20.6449 74.9277 21.3642 75.7114C20.1325 76.6052 17.8653 78.5781 17.5819 81.1614C17.4349 82.513 17.8265 83.868 18.6719 84.9328C18.1942 85.2518 17.771 85.6456 17.4184 86.0991C16.682 87.0799 16.3398 88.301 16.4592 89.5217H12.0883V60.0917H48.7668L48.745 89.5653Z" fill="#596A73"/>
<path d="M95.4296 57.4212H56.0261C55.8468 57.4197 55.669 57.454 55.503 57.5219C55.337 57.5899 55.1863 57.6902 55.0594 57.817C54.9326 57.9438 54.8323 58.0946 54.7644 58.2606C54.6964 58.4265 54.6622 58.6044 54.6636 58.7837V90.9714C54.6636 91.3327 54.8072 91.6793 55.0627 91.9348C55.3182 92.1903 55.6648 92.3339 56.0261 92.3339H95.4296C95.791 92.3339 96.1375 92.1903 96.3931 91.9348C96.6486 91.6793 96.7921 91.3327 96.7921 90.9714V58.7837C96.7936 58.6044 96.7593 58.4265 96.6914 58.2606C96.6234 58.0946 96.5231 57.9438 96.3963 57.817C96.2695 57.6902 96.1187 57.5899 95.9527 57.5219C95.7868 57.454 95.609 57.4197 95.4296 57.4212ZM64.6153 89.5762C64.5585 89.2765 64.563 88.9684 64.6285 88.6706C64.6941 88.3727 64.8194 88.0912 64.9968 87.8431C65.6835 86.9493 67.1768 86.437 69.3568 86.3716C71.0837 87.9548 73.3414 88.8332 75.6843 88.8332C78.0271 88.8332 80.2848 87.9548 82.0117 86.3716C84.1917 86.437 85.6959 86.9384 86.3717 87.8104C86.5597 88.0595 86.692 88.346 86.7597 88.6507C86.8274 88.9553 86.8289 89.2709 86.7641 89.5762H64.6262C64.6262 89.5762 64.6262 89.5871 64.6153 89.5762ZM94.0453 89.5762H89.5763C89.7012 88.355 89.3584 87.132 88.6171 86.1536C87.3309 84.4641 84.9329 83.603 81.5103 83.603C81.3276 83.6038 81.1468 83.6409 80.9784 83.712C80.81 83.7831 80.6574 83.8868 80.5293 84.0172C79.9103 84.6679 79.1655 85.1859 78.3401 85.5399C77.5147 85.8939 76.626 86.0765 75.7279 86.0765C74.8298 86.0765 73.941 85.8939 73.1157 85.5399C72.2903 85.1859 71.5454 84.6679 70.9264 84.0172C70.7983 83.8868 70.6457 83.7831 70.4773 83.712C70.309 83.6409 70.1282 83.6038 69.9454 83.603C66.5119 83.603 64.1248 84.4641 62.8277 86.1536C62.0932 87.135 61.7547 88.3567 61.8794 89.5762H57.3886V60.1462H94.0671L94.0453 89.5762Z" fill="#596A73"/>
</svg>
