<svg width="50" height="49" viewBox="0 0 50 49" fill="none" xmlns="http://www.w3.org/2000/svg">
<path d="M48.9118 24.1138C44.0991 14.781 34.7455 8.98324 24.501 8.98324C20.0947 8.97182 15.7542 10.0525 11.8677 12.1285L12.6333 13.5712C16.2843 11.621 20.3617 10.6059 24.501 10.6166C33.9936 10.6166 42.677 15.9205 47.263 24.4879C43.9214 30.7246 38.242 35.3974 31.6207 37.3402L32.08 38.9075C39.2608 36.8009 45.3955 31.6814 48.9118 24.8624C48.9715 24.7466 49.0026 24.6183 49.0026 24.4881C49.0026 24.3579 48.9715 24.2295 48.9118 24.1138Z" fill="#596A73"/>
<path d="M24.5008 38.3597C15.0082 38.3597 6.32483 33.0558 1.73885 24.4882C3.91858 20.3999 7.12853 16.9518 11.0508 14.4856L10.1843 13.1011C5.89257 15.7998 2.40618 19.6038 0.0908204 24.1139C0.0311394 24.2296 0 24.358 0 24.4882C0 24.6184 0.0311394 24.7467 0.0908204 24.8625C4.90353 34.1953 14.2571 39.993 24.5008 39.993C26.4837 39.9935 28.4605 39.7756 30.3956 39.3433L30.0383 37.7495C28.2205 38.1555 26.3635 38.3602 24.5008 38.3597Z" fill="#596A73"/>
<path d="M39.6748 4.89993H49.0008V3.2666H39.2008C39.0569 3.2666 38.9154 3.30466 38.7909 3.37693C38.6664 3.44919 38.5632 3.55309 38.4918 3.6781L35.2251 9.39476L36.6432 10.2051L39.6748 4.89993Z" fill="#596A73"/>
<path d="M49.0008 6.53345H43.2842V8.16678H49.0008V6.53345Z" fill="#596A73"/>
<path d="M41.6509 6.53345H40.0176V8.16678H41.6509V6.53345Z" fill="#596A73"/>
<path d="M49.0008 0H46.5508V1.63333H49.0008V0Z" fill="#596A73"/>
<path d="M44.9173 0H39.2007V1.63333H44.9173V0Z" fill="#596A73"/>
<path d="M9.32699 44.0998H0.000976562V45.7332H9.80096C9.94493 45.7332 10.0863 45.6951 10.2109 45.6228C10.3354 45.5506 10.4386 45.4467 10.51 45.3217L13.7767 39.605L12.3586 38.7947L9.32699 44.0998Z" fill="#596A73"/>
<path d="M5.71763 40.8333H0.000976562V42.4666H5.71763V40.8333Z" fill="#596A73"/>
<path d="M8.98392 40.8333H7.35059V42.4666H8.98392V40.8333Z" fill="#596A73"/>
<path d="M2.45097 47.3667H0.000976562V49H2.45097V47.3667Z" fill="#596A73"/>
<path d="M9.80064 47.3667H4.08398V49H9.80064V47.3667Z" fill="#596A73"/>
<path d="M35.5716 19.2495C34.2187 16.4003 31.8148 14.1858 28.8643 13.0708C25.9138 11.9558 22.6461 12.027 19.747 13.2694C16.8478 14.5117 14.5426 16.8287 13.315 19.7341C12.0873 22.6395 12.0327 25.9075 13.1627 28.8523C14.2926 31.7971 16.5192 34.1898 19.3753 35.5282C22.2313 36.8667 25.4948 37.0469 28.4809 36.0311C31.4669 35.0152 33.9435 32.8823 35.3908 30.0798C36.8381 27.2774 37.1437 24.0232 36.2435 21.0003L34.678 21.4662C35.4631 24.0973 35.1985 26.9301 33.9396 29.3702C32.6808 31.8103 30.5257 33.6679 27.9266 34.5531C25.3275 35.4383 22.4866 35.2822 20.0001 34.1176C17.5136 32.9531 15.575 30.8706 14.591 28.3073C13.607 25.744 13.6543 22.8992 14.7229 20.37C15.7915 17.8408 17.7982 15.8238 20.322 14.7425C22.8458 13.6612 25.6904 13.5996 28.2586 14.5706C30.8268 15.5417 32.9191 17.4698 34.0961 19.9504L35.5716 19.2495Z" fill="#596A73"/>
<path d="M24.501 20.4167H22.8677V22.0501H24.501V20.4167Z" fill="#596A73"/>
<path d="M25.3174 23.6833H23.6841V25.3167H25.3174V23.6833Z" fill="#596A73"/>
<path d="M22.8677 26.1333H21.2344V27.7666H22.8677V26.1333Z" fill="#596A73"/>
<path d="M28.584 24.5H26.9507V26.1333H28.584V24.5Z" fill="#596A73"/>
<path d="M33.4842 26.1332V22.8666H31.8509V23.6833H30.9832C30.8373 22.5209 30.38 21.4196 29.6598 20.4957L30.2754 19.8801L30.8529 20.4576L32.0078 19.3027L29.6979 16.9928L28.5434 18.1477L29.1209 18.7252L28.5053 19.3408C27.5813 18.6206 26.48 18.1635 25.3176 18.0176V17.1499H26.1342V15.5166H22.8676V17.1499H23.6842V18.0176C22.5219 18.1636 21.4206 18.6208 20.4967 19.341L19.8811 18.7254L20.4586 18.1479L19.3036 16.993L16.9938 19.3029L18.1487 20.4574L18.7262 19.8799L19.3418 20.4955C18.6216 21.4195 18.1644 22.5209 18.0186 23.6833H17.1509V22.8666H15.5176V26.1332H17.1509V25.3166H18.0186C18.1645 26.4789 18.6218 27.5802 19.342 28.5041L18.7264 29.1197L18.1489 28.5422L16.994 29.6972L19.3038 32.007L20.4584 30.8521L19.8809 30.2747L20.4965 29.659C21.4204 30.3792 22.5218 30.8364 23.6842 30.9822V31.8499H22.8676V33.4832H26.1342V31.8499H25.3176V30.9822C26.4799 30.8363 27.5812 30.379 28.5051 29.6588L29.1207 30.2745L28.5432 30.8519L29.6982 32.0068L32.008 29.697L30.8531 28.5424L30.2756 29.1199L29.66 28.5043C30.3802 27.5804 30.8374 26.479 30.9832 25.3166H31.8509V26.1332H33.4842ZM24.5009 29.3999C23.5318 29.3999 22.5844 29.1125 21.7786 28.5741C20.9728 28.0357 20.3448 27.2704 19.9739 26.3751C19.603 25.4797 19.506 24.4945 19.6951 23.544C19.8841 22.5935 20.3508 21.7204 21.0361 21.0351C21.7214 20.3498 22.5944 19.8831 23.545 19.6941C24.4955 19.505 25.4807 19.602 26.376 19.9729C27.2714 20.3438 28.0367 20.9718 28.5751 21.7776C29.1135 22.5834 29.4009 23.5308 29.4009 24.4999C29.3994 25.799 28.8827 27.0445 27.9641 27.9631C27.0455 28.8817 25.8 29.3984 24.5009 29.3999Z" fill="#596A73"/>
</svg>
