<svg width="17" height="17" viewBox="0 0 17 17" fill="none" xmlns="http://www.w3.org/2000/svg">
<path d="M11.9287 10.7659L9.5489 13.1268C7.18796 11.7763 5.23311 9.82148 3.88266 7.46055L6.24359 5.08073C6.4608 4.85408 6.55523 4.54243 6.49857 4.23079L5.79029 0.755498C5.7053 0.321087 5.31811 0 4.86481 0H0.945659C0.41681 0 -0.0270456 0.443856 0.00128556 0.972704C0.161829 3.70194 0.992877 6.26119 2.29611 8.49936C3.78822 11.0775 5.93195 13.2118 8.50064 14.7039C10.7388 15.9977 13.2981 16.8382 16.0273 16.9987C16.5561 17.027 17 16.5832 17 16.0543V12.1352C17 11.6819 16.6789 11.2947 16.2445 11.2097L12.7787 10.5203C12.6277 10.4875 12.471 10.4927 12.3226 10.5356C12.1742 10.5784 12.0389 10.6576 11.9287 10.7659Z" fill="#383838"/>
</svg>
