<svg width="49" height="49" viewBox="0 0 49 49" fill="none" xmlns="http://www.w3.org/2000/svg">
<path d="M47.2236 22.4259C48.2032 21.2402 48.6157 19.745 48.3578 18.3015C48.1518 17.1158 47.5329 16.1362 46.6565 15.3627V15.3113C47.6361 14.1771 48.0486 12.6821 47.7907 11.1868C47.5847 10.0527 46.9658 9.02157 46.0894 8.24808V8.19665C47.069 7.06246 47.4815 5.56748 47.2236 4.07223C46.8111 1.80412 44.5942 0 42.0682 0H29.3343C22.2198 0 18.7657 1.75275 16.4973 2.9384C15.7242 3.35088 15.0538 3.66014 14.4867 3.81478L3.29947 3.81514C1.49489 3.81514 0 5.31003 0 7.11461V25.7772C0 27.5818 1.49489 29.0767 3.29947 29.0767H14.2805C14.3837 29.1281 14.4866 29.2313 14.5898 29.2827C16.6004 30.7263 23.3025 36.1395 25.1068 44.0272C25.8286 47.2235 28.6642 48.4609 31.1387 48.0998C33.4585 47.7388 35.8302 45.78 35.4691 42.3773C35.1599 39.4385 34.7474 37.6343 34.2317 35.6752C33.9225 34.3863 33.5614 33.046 33.3039 31.2929H43.9241C45.419 31.2929 46.811 30.6226 47.7907 29.4883C48.7703 28.3541 49.1827 26.8591 48.9249 25.3639C48.7188 24.2304 48.1 23.1994 47.2236 22.4259ZM3.29947 6.85654H13.1979V26.0862H3.29947C3.14483 26.0862 3.04162 25.983 3.04162 25.8284V7.11423C3.04162 6.95924 3.14483 6.85654 3.29947 6.85654ZM40.5216 22.6837C40.5216 23.5086 41.1919 24.1786 42.0165 24.1786H43.6664C44.7492 24.1786 45.7284 24.9003 45.883 25.8285C45.9862 26.447 45.8316 27.0141 45.4191 27.4784C45.0066 27.9423 44.4913 28.2001 43.8724 28.2001H32.7367C31.9635 28.2001 31.2418 28.5094 30.7776 29.0765C30.3136 29.6436 30.1072 30.4168 30.2104 31.1385C30.5715 33.3038 30.9322 34.8504 31.2933 36.3454C31.7572 38.1499 32.1696 39.8509 32.4275 42.5836C32.5821 44.1303 31.6025 44.8521 30.6229 45.0581C29.7979 45.2128 28.3544 44.9549 27.9937 43.3568C25.9831 34.3863 18.5593 28.4061 16.3425 26.8079C16.291 26.8079 16.291 26.7565 16.2393 26.7047L16.2389 6.44486C16.806 6.2388 17.3217 5.92917 17.8888 5.61991C20.0026 4.53709 22.941 2.99074 29.3338 2.99074H42.0162C43.099 2.99074 44.0781 3.71248 44.2328 4.64066C44.336 5.2592 44.1814 5.82631 43.7689 6.29057C43.3564 6.75448 42.8411 7.01231 42.2222 7.01231H40.9333C40.1084 7.01231 39.4384 7.68263 39.4384 8.5072C39.4384 9.33215 40.1088 10.0021 40.9333 10.0021H42.5832C43.6661 10.0021 44.6452 10.7238 44.7999 11.652C44.9031 12.2705 44.7485 12.8377 44.336 13.3019C43.9235 13.7658 43.4082 14.0237 42.7893 14.0237L41.5004 14.0233C40.6755 14.0233 40.0055 14.6936 40.0055 15.5182C40.0055 16.3431 40.6758 17.0131 41.5004 17.0131H43.1503C44.2332 17.0131 45.2123 17.7348 45.367 18.663C45.4702 19.2815 45.3156 19.8486 44.9031 20.3129C44.4906 20.7768 43.9753 21.0347 43.3564 21.0347H42.0675C41.2426 21.1893 40.5216 21.8591 40.5216 22.6837Z" fill="#596A73"/>
<path d="M10.5174 11.9604C10.5174 13.2702 9.45584 14.3321 8.14609 14.3321C6.83634 14.3321 5.77441 13.2702 5.77441 11.9604C5.77441 10.6507 6.83634 9.58914 8.14609 9.58914C9.45584 9.58914 10.5174 10.6507 10.5174 11.9604Z" fill="#596A73"/>
</svg>
