<svg width="29" height="29" viewBox="0 0 29 29" fill="none" xmlns="http://www.w3.org/2000/svg">
<path d="M26.8312 6.70608C22.4932 -0.000221686 13.6363 -1.99399 6.76774 2.1748C0.0799159 6.34358 -2.08911 15.4061 2.24894 22.1124L2.61044 22.6562L1.16443 28.0937L6.58699 26.6437L7.12924 27.0062C9.47902 28.275 12.0095 29 14.5401 29C17.2513 29 19.9626 28.275 22.3124 26.825C29.0002 22.4749 30.9885 13.5936 26.8312 6.70608ZM23.0354 20.6624C22.3124 21.7499 21.4086 22.475 20.1434 22.6562C19.4204 22.6562 18.5166 23.0187 14.9016 21.5687C11.8288 20.1187 9.29826 17.7624 7.49074 15.0436C6.40623 13.7749 5.86398 12.1436 5.68323 10.5124C5.68323 9.06235 6.22548 7.79359 7.12924 6.88733C7.49074 6.52483 7.85225 6.34358 8.21375 6.34358H9.11751C9.47902 6.34358 9.84052 6.34358 10.0213 7.06858C10.3828 7.97484 11.2865 10.1499 11.2865 10.3311C11.4673 10.5124 11.4673 10.8749 11.2865 11.0561C11.4673 11.4186 11.2865 11.7811 11.1058 11.9624C10.925 12.1436 10.7443 12.5061 10.5635 12.6874C10.202 12.8686 10.0213 13.2311 10.202 13.5936C10.925 14.6811 11.8288 15.7686 12.7325 16.6749C13.8171 17.5812 14.9016 18.3062 16.1668 18.8499C16.5283 19.0312 16.8898 19.0312 17.0706 18.6687C17.2513 18.3062 18.1551 17.3999 18.5166 17.0374C18.8781 16.6749 19.0589 16.6749 19.4204 16.8562L22.3124 18.3062C22.6739 18.4874 23.0354 18.6687 23.2162 18.8499C23.3969 19.3937 23.3969 20.1187 23.0354 20.6624Z" fill="#71C187"/>
</svg>
